<?xml version="1.0" encoding="UTF-8"?> <svg xmlns="http://www.w3.org/2000/svg" viewBox="0 0 439.54 38.92"> <defs> <style>.cls-1{fill:#ece0b8;}</style> </defs> <title>header_illustration@2x</title> <g id="Layer_2" data-name="Layer 2"> <g id="Layer_1-2" data-name="Layer 1"> <path class="cls-1" d="M192.87,30.89c.54,1.54,6.11.83,7.46.88q4.93.16,9.89.19c6.43,0,12.88-.11,19.3-.47,2.86-.16,33.51,1,43.35.82q12.51-.23,25-.3c4.37,0,8.74.16,13.11.17,8.77,0,17.54-.08,26.31-.07,3.27,0,7.44.33,9.76-.17s1.25-3.59-1.5-4a24,24,0,0,0-4.36-.1c-7.26.17-14.51.38-21.77.56-1.5,0-3,0-4.5,0-9.5.31-19,.7-28.52.95-4.06.1-8.12-.14-12.18-.12-13.27.07-26.54.19-39.81.29h-3.86q-16.17.13-32.37.26C197.37,29.84,192.2,29,192.87,30.89Z"></path> <path class="cls-1" d="M246.26,35.94c-12.61-.45-25.24-.36-37.86-.57-11.44-.2-22.88-.59-34.32-.74-8.88-.12-17.77,0-26.65,0a8.13,8.13,0,0,0-1.91.16c-1.18.28-2.29.67-2.15,2.27s1.35,1.63,2.57,1.57c4.6-.2,9.19-.46,13.8-.59,5.12-.13,10.25-.15,15.38-.19,6,0,12-.12,17.94-.06,7.8.08,15.6.29,23.4.43l25.35.46c.43,0,2.89-.21,3.31-.14,2,.14,3.8-2.7,1.14-2.63"></path> <path class="cls-1" d="M218.58,23c-.59-.68.1-1.63,1.28-1.58,5,.21,10,.43,15.07.47s9.82-.16,14.73-.21c8.13-.09,16.26-.1,24.39-.23s16.24-.41,24.37-.53c5.55-.09,11.11,0,16.67,0,10.37-.05,20.73-.15,31.1-.21,3.53,0,7.06.06,10.59,0,8-.1,29.16-.18,31.72-.28q9.28-.36,18.58-.46c3.14,0,6.28-.05,9.41,0,2.45,0,6.11-.61,8.25.89a1,1,0,0,1,.47.58c.15.57-.49,1-1,1.23a18.27,18.27,0,0,1-5.32.78c-11,.5-21.92.35-32.88.34-7.7,0-15.4.19-23.1.22q-19.58.07-39.15,0c-10.69,0-21.38-.12-32.07-.21-12.62-.11-25.24-.26-37.85-.37q-15.4-.12-30.8-.17c-1.77,0-3.81.4-4.41-.27"></path> <path class="cls-1" d="M438.58,23.42a1.78,1.78,0,0,1-2-2.17c.07-.54.48-1.37,1.24-1.39a2,2,0,0,1,1.68,1.43c.15.82.14,1.83-.89,2.13"></path> <path class="cls-1" d="M430.32,23.26a2,2,0,0,1-.5-2.39,2,2,0,0,1,2.62-.89c1.3.61.92,1.83.62,2.76-.53,1.61-2.16,1-2.74.52"></path> <path class="cls-1" d="M130.19,38.58a1.78,1.78,0,0,0,2-2.18c-.06-.53-.47-1.36-1.23-1.38a2,2,0,0,0-1.68,1.43c-.16.81-.14,1.83.88,2.13"></path> <path class="cls-1" d="M138.45,38.41A2,2,0,0,0,139,36a2.06,2.06,0,0,0-2.63-.9c-1.3.62-.91,1.84-.61,2.76.52,1.61,2.15,1,2.73.52"></path> <path class="cls-1" d="M124.59,38.41a2,2,0,0,0,.5-2.38,2,2,0,0,0-2.62-.9c-1.31.62-.92,1.84-.62,2.76.53,1.61,2.16,1,2.74.52"></path> <path class="cls-1" d="M361.53,32a1.79,1.79,0,0,1-2-2.18c.07-.54.48-1.37,1.24-1.38a2,2,0,0,1,1.68,1.43c.15.81.14,1.82-.89,2.13"></path> <path class="cls-1" d="M353.27,31.84a2,2,0,0,1-.5-2.39,2,2,0,0,1,2.62-.89c1.31.62.92,1.83.62,2.76-.53,1.61-2.16,1-2.74.52"></path> <path class="cls-1" d="M164.28,26c-10.79-.06-21.58-.17-32.37-.26h-3.86q-19.91-.15-39.8-.28c-4.07,0-8.13.22-12.19.11-9.51-.25-19-.63-28.52-1-1.5,0-3,0-4.5,0-7.26-.19-14.51-.4-21.77-.57a25,25,0,0,0-4.36.1c-2.74.38-3.82,3.47-1.5,4s6.49.18,9.76.18c8.77,0,17.54.06,26.31.06,4.37,0,8.74-.19,13.11-.17q12.52.08,25,.31c9.84.18,40.49-1,43.35-.83,6.43.37,12.87.51,19.31.47,3.29,0,6.59-.08,9.88-.19,1.35,0,6.92.66,7.46-.87C170.29,25.21,165.12,26.05,164.28,26Z"></path> <path class="cls-1" d="M1,28.22A1.79,1.79,0,0,0,3,26c-.07-.54-.48-1.36-1.24-1.38A2,2,0,0,0,.07,26.09c-.15.81-.14,1.83.89,2.13"></path> <path class="cls-1" d="M9.22,28.05a2,2,0,0,0,.5-2.38,2,2,0,0,0-2.62-.9c-1.31.62-.92,1.84-.62,2.76.53,1.61,2.16.95,2.74.52"></path> <path class="cls-1" d="M195.26,31.46a.61.61,0,0,0,.16-.65c-.08-.29-1.42-1.76-1.65-1.59.67-.49,1.43-.75,1.55-1.18.75-2.75,3.08-6.68,2.79-14C197.88,8,196,2.92,194.16.4a.91.91,0,0,0-1.67.47c-1.13,2.74-3.77,9.49-3,15.82a35,35,0,0,0,3.61,11.16c-2.43-1.29-4.59-5.07-10.16-7.87A22.41,22.41,0,0,0,171,17.8c-1.35.1-1.87.43-1.84,1.31,0,.3,5,7.5,10.87,10.48,3.37,1.71,9.15,2.25,11.75,2C192.52,31.57,194.61,32,195.26,31.46Z"></path> <path class="cls-1" d="M196.58,28.1a18.51,18.51,0,0,1,4.09-9.25c3.57-3.92,11.21-5.43,11.65-4.82s-1.18,6.21-3,8.88-4.88,5.42-8.92,5.93a16.13,16.13,0,0,1-3.42-.18c-.13,0-.37-.37-.35-.56"></path> </g> </g> </svg> 