<?xml version="1.0" encoding="utf-8"?>
<!-- Generator: Adobe Illustrator 23.0.4, SVG Export Plug-In . SVG Version: 6.00 Build 0)  -->
<svg version="1.1" id="Layer_1" xmlns="http://www.w3.org/2000/svg" x="0px" y="0px"
     viewBox="0 0 137 120.4" style="enable-background:new 0 0 137 120.4;" xml:space="preserve">
<style type="text/css">
	.st0{fill:#CD9F00;}
	.st1{fill:none;}
</style>
<title>highlight_awareness</title>
<g>
	<g id="Layer_1-2">
		<path class="st0" d="M25.1,67.3c-0.6-0.6,0.8-1.9,1.2-2.3c2.6-2.7,5.6-5.2,8.8-7.3c10.3-6.9,23.8-11.2,36.3-10.9
			c13,0.4,23.8,7.7,34.6,14.2c2.2,1.4,4.3,2.7,5.8,4.9c0.2,0.2,0.5,0.9,0,1.1c-0.7,0.2-2-0.9-2.6-1.3c-2.8-1.7-5.4-3.8-8.3-5.4
			c-2.8-1.7-5.9-3.2-9-4.4c-8.3-3.5-17.4-5-26.5-4.4c-8.7,0.6-17,3.5-24.7,7.3c-3.7,1.8-7.3,3.9-10.8,6
			C29.5,65.2,25.8,67.9,25.1,67.3C24.5,66.5,25.8,67.8,25.1,67.3z"/>
		<path class="st0" d="M54.4,53c0.8,0.6-0.9,5-1.2,5.9c-0.5,2.7-0.8,5.5-0.7,8.3v-0.1c0.3,1.7,1.3,6,5,9.1c5.7,4.7,15,4.1,20-0.8
			c3.7-3.5,4.2-8.1,4.3-9.4c0.2-2.6-0.5-7.9-2.4-11.1c-0.8-1.4-1.5-2.7-1.9-4.3c-0.1-0.3,0-0.5,0.1-0.6c0.3-0.3,1.7,0.7,2.1,1.1
			c1.5,1.2,8.2,8.7,5.9,18.1c-1.9,7.9-9.1,12.6-15.4,13.8c-1.9,0.4-10.1,1.8-16.5-3.9c-0.6-0.5-5.8-5.4-5.8-12.8
			c0-0.8,0.1-4.6,2.4-8.8C51.7,55.4,53.2,53.9,54.4,53z"/>
		<path class="st0" d="M29.3,52.7c-0.8-0.7,1.9-2.6,2.4-3.1c3.2-2.2,6.1-4.9,9.4-6.9c7.3-4.5,15.7-7.1,24.3-7.5
			c6.5-0.3,13.1,0.5,19.4,2.2c3.2,0.8,6.2,1.9,9.3,3.2c2.2,0.9,4.4,2.1,6.6,3.2c2,0.9,4.2,1.7,6.1,3c1.5,0.9-1.7,0.6-2.2,0.4
			c-3.4-0.9-6.8-2.2-10.1-3.3c-7.7-2.3-15.6-3.7-23.5-4.2c-8.9-0.4-17.7,1.2-25.8,4.7c-3.7,1.7-7.2,3.5-10.6,5.6
			C33.8,50.4,30,53.3,29.3,52.7C28.6,52.1,29.9,53.2,29.3,52.7z"/>
		<path class="st0" d="M68,62.3c0.8-1.3,1.4-2.3,2.2-3.5c0.8-1.3,1.8-3.3,2.3-3.6c0.6-0.3,2.5,1.6,2.8,2c3.6,4.2,1.5,11.8-2.8,14.8
			c-3.3,2.2-8,2.1-11.1-0.5c-1.7-1.5-3.2-4-3.6-6.2c-0.6-3.3,0.6-7,3.2-9.1c0.7-0.6,3.3-2.2,4.3-1.9c0.9,0.3,1.1,2,1.2,2.7
			C66.9,58.9,67.3,60.6,68,62.3z"/>
		<path class="st0" d="M26.9,70.6c0.4-0.5,2.8,0.7,5.2,1.9c3.4,1.6,7.1,2.8,10.4,4.4c5.9,2.6,15.4,4.7,24.8,4.6
			c9.1-0.1,17.7-2.2,23.2-4.6c3.7-1.6,7.5-3,11.2-4.7c2.8-1.4,4.7-2.4,5.2-2.1c0.6,0.6-2.6,3.3-3.1,3.6c-1.2,0.6-2.2,1.2-3.2,1.6
			c-3.2,1.6-4.5,2.2-6.6,3.2c-13,5.9-24.7,6.6-24.7,6.6c-7.2,0.4-11.9-0.6-21.2-2.6c0,0-14.1-3.1-19.9-9.5
			C28,72.5,26.6,71.1,26.9,70.6z"/>
	</g>
</g>
<g>
	<g id="Layer_1-2_1_">
		<rect class="st1" width="137" height="120.4"/>
	</g>
</g>
</svg>
