<?xml version="1.0" encoding="utf-8"?>
<!-- Generator: Adobe Illustrator 23.0.4, SVG Export Plug-In . SVG Version: 6.00 Build 0)  -->
<svg version="1.1" id="Layer_1" xmlns="http://www.w3.org/2000/svg" x="0px" y="0px"
     viewBox="0 0 438.5 79.9" style="enable-background:new 0 0 438.5 79.9;" xml:space="preserve">
<style type="text/css">
	.st0{fill:#E4D4A2;}
</style>
<title>experience_drawing</title>
<g>
	<g>
		<g id="Layer_1-2">
			<g>
				<path class="st0" d="M418.6,69.9c0.7-0.1,1.4,0,2,0.4c0.6,0.5,0.8,1.5,1.1,2.8c0.6,2.7-0.3,6.7-2.2,6.8s-2.2-5.8-2.4-8.9
					C417.3,70.5,417.9,70,418.6,69.9z"/>
				<path class="st0" d="M438.5,46.2c-1.2-16.2-19.9-27.2-33.1-33.3c-16.9-7.7-36-11-54.4-12.1c-20-1.2-39.8-1.4-59.5,2.4
					c-8.1,1.5-19,3.2-25.5,8.5c-0.4,0.4-0.9,0.8-1.5,1c-1.3-0.5-8.8-2.5-11.4-3.1c-5.3-1.3-10.6-2.3-16-2.9
					c-19.7-2.5-40-2.3-59.8-1.5c-20.5,0.8-41.2,2.5-61,8.3c-8.2,2.4-14.5,7.9-23,9c-10.2,1.3-20.4,3.3-30.4,6
					c-12.9,3.3-25.4,7.9-37.3,13.5c-5.8,2.8-11.5,6-16.8,9.7c-2.4,1.7-4.7,3.4-6.9,5.2c-0.9,0.7-3.2,5.6-0.1,4.6
					c1.7-0.5,3.6-4,5.1-5.2c2.6-2.1,5.4-4,8.3-5.6c5.9-3.4,12-6.4,18.3-9c13.3-5.4,27-10.4,41.2-13.4c6.6-1.4,13.3-2.2,20.1-2.5
					c-1.3,2-2.2,3.5-2.9,4.6c-1.3,2.1-1.7,4.6-1.2,6.9c2.5,11.5,18.3,12,27.6,11.5c6.8-0.4,30.2-5.3,23.2-16.5
					c-3-4.7-10.2-6.4-15.2-7.8c-5.9-1.8-12-2.7-18.2-2.9c3.9-3.6,10.6-5.1,15.5-6.6c6.2-1.8,12.6-3.2,19-4.1
					c13.7-2,27.6-2.6,41.4-3.2c12.9-0.5,25.9-0.4,38.8,0c13.6,0.5,26.2,3.2,39.3,6.7c-4.1,4.7-9.4,9.9-7.9,16.7
					c1.4,6.2,7.5,9.8,13.6,9.5c6.4-0.3,13.3-5.6,14-12.2c0.8-7.9-8.3-11.5-13.9-14.5c9.3-6.1,21.6-7.6,32.5-8.6
					c12.1-1,24.2-1.3,36.3-0.7c23.1,0.9,47.6,3.6,68.9,12.9c9,3.9,18.6,9,23.7,17.8c4.6,7.9,6.7,18.2-0.8,25c-6,5.5-17.9,6.5-21-2.1
					c-3.9-10.5,17.3-11.3,11.4-2.8c-1.7-1.8,0.4-3.8-2.8-4.7c-2.5-0.7-3.7-0.1-5,2.2c0.8,3.6,3.1,6.9,7.1,6.9
					c12.3,0.1,5.9-15.5-3-16.4s-13.3,8.9-12.3,16.6c0.8,4.1,3.8,7.3,7.9,8.3c3.8,0.8,7.8,0.9,11.7,0.3c2-0.3,3.7-1.6,5.4-2.8
					C433.8,61.6,439.1,54,438.5,46.2z M112.4,25.4c5.3,0.1,10.5,0.9,15.6,2.2c7.4,2.2,12.4,7.9,4.5,13.5
					c-12.1,8.5-47.9,5.9-33.5-15.4C103.1,24.2,108.1,25.2,112.4,25.4z M276.6,24.6c1.8,4.4-1.3,9-5.5,10.2c-3.6,1-9.3,0.8-11.2-3
					c-2.4-4.7,1.8-12.5,4.9-15.9C269.3,17.4,274.9,20.5,276.6,24.6z"/>
				<path class="st0" d="M403.5,66c0.9,2.1-5.3,6.8-7.4,6.2C392.5,71,400.2,62.7,403.5,66C403.9,66.9,402.2,64.6,403.5,66z"/>
				<path class="st0" d="M401.9,72c1.5-2,8.4-4.1,6.5,0.3c-0.9,2.1-2.2,4.8-4.6,4.6C400.7,76.7,401.2,74.2,401.9,72
					C402.3,71.4,401.8,72.2,401.9,72z"/>
				<path class="st0" d="M388.2,54.7c1.4,2.6,10,4.6,11.7,1.7C403.1,50.6,390.5,52.5,388.2,54.7C389.6,57.5,391.3,51.8,388.2,54.7z"
					/>
				<path class="st0" d="M402,50.9c2.3-4.7-9.1-11.3-9.8-7.6C391.6,46.7,399.2,50.9,402,50.9C402.9,49,399.1,50.9,402,50.9z"/>
				<path class="st0" d="M401.8,35c-6.8,0.6-2.4,7,0.2,9.9c1.8,1.9,3,0.8,3.9-1.3C404.1,41,403.8,37.6,401.8,35
					C400,35.2,403.8,37.6,401.8,35z"/>
				<path class="st0" d="M401.7,61.2c-1.9-4.1-13,0.6-11.7,3.7C391.3,68,401.2,63.8,401.7,61.2C401.1,59.9,401.1,64.7,401.7,61.2z"
					/>
				<path class="st0" d="M411,78.7c3.5-1.9,4.3-4.4,2.8-8.1C409.7,69.8,408.1,76.4,411,78.7C414.8,76.7,408.2,76.5,411,78.7z"/>
			</g>
		</g>
	</g>
</g>
</svg>
