<svg xmlns="http://www.w3.org/2000/svg" viewBox="0 0 86.81 106.11"><defs><style>.cls-1{fill:#cd9f00;}</style></defs><title>tools@2x</title><g id="Layer_2" data-name="Layer 2"><g id="Layer_1-2" data-name="Layer 1"><path class="cls-1" d="M69.86,63.72c-2.64-.59-5.26-1-7.82-1.57-1.28-.28-1.13-1.42-.49-2.24,1.77-2.23,3.62-4.32,5.25-6.49s0-4.62-.49-5.19c-1.94-2.12-3-3.18-4.75-5.29a4.28,4.28,0,0,0-5.52-.7c-2.89,1.83-4.68,3.19-7.27,4.94l-1.49-1c-.41-3.53-.79-6.84-1.14-9.9A2.69,2.69,0,0,0,43.66,34c-3-.18-5.67-.19-8.1-.26A3.55,3.55,0,0,0,32,36.43c-1.19,6.2-1.54,9.64-1.3,9.69S31.6,42.9,33.27,37a2.23,2.23,0,0,1,2.17-1.66l7,.55a1.76,1.76,0,0,1,1.65,1.68c.31,2.94.48,6.11.75,9.48a1.23,1.23,0,0,0,.52.91l0,0L48,49.87a1.3,1.3,0,0,0,1.44,0l0,0c2.23-1.42,3.9-2.61,6.37-4.08a3.6,3.6,0,0,1,4.4.34c1.07,1.2,1.79,2,2.86,3.28a2.26,2.26,0,0,1,.09,3.21c-1.72,2.18-3.6,4.3-5.47,6.54a1.67,1.67,0,0,0-.36,1.39l.6,3.22a1.72,1.72,0,0,0,1.33,1.36c2.44.53,4.91,1.09,7.43,1.6,1.86.38,2.64,1.53,2.63,2.58,0,1.44-.17,2.89-.26,4.36,0,.76-.5,2.21-2.87,2.55s-5,.46-7.58.7a4.07,4.07,0,0,0-2,1.1,7.12,7.12,0,0,0-1.41,2.35,2.69,2.69,0,0,0,.14,2.22c1.63,2.5,3.31,4.92,4.93,7.57A1.33,1.33,0,0,1,60.12,92c-1.38,1.25-2.43,2.16-3.83,3.42a2,2,0,0,1-2.5,0,69.51,69.51,0,0,1-7.33-5.87,2.46,2.46,0,0,0-1.65-.63,7.14,7.14,0,0,0-2,.57,4,4,0,0,0-2,1.08,4,4,0,0,0-.68,2c-.15.8-.28,1.61-.41,2.41-.26,1.6-.51,3.2-.91,4.77A3,3,0,0,1,35.6,102c-1.44-.12-2.87-.12-4.29-.22-.83-.06-1.38-.44-1.55-1.8-.19-1.54-.34-3.09-.48-4.64-.08-.79-.14-1.59-.22-2.38A7.46,7.46,0,0,0,28.77,91c-.27-.72-.82-1-1.4-1.41-1-.75-2.23-1.88-3.61-1.47a9.23,9.23,0,0,0-2.27,1.22c-.8.51-1.59,1-2.38,1.55-.39.26-4.44,3.14-4.53,3l-5.79-6.4,6.54-8.05,0,0A1.68,1.68,0,0,0,15.7,78c-.22-1.07-.43-2.13-.65-3.19a1.72,1.72,0,0,0-1.35-1.36L3.34,71.38c.13-3.13.27-6.17.4-9.11l10.58-1.16h0a1.32,1.32,0,0,0,1-.6c.61-.92,1.2-1.83,1.78-2.72l0,0a1.3,1.3,0,0,0,0-1.43C14.9,53.06,12.83,50,10.92,47.2l7.38-6.92c3.91,3,6.94,5.34,8.92,6.78l.05,0a.33.33,0,0,0,.29.06c2.07-.54,3.14-.89,3.12-1s-1.08-.06-3.06.2c-1.89-1.76-4.87-4.41-8.82-7.84a.85.85,0,0,0-1.1,0l0,0-9,7.7a1.09,1.09,0,0,0-.21,1.42l0,0L14.41,57l-1,1.42-11.3,1a1.51,1.51,0,0,0-1.37,1.4v0Q.4,66.49,0,72.62a1.62,1.62,0,0,0,1.28,1.69h0L11.86,76.6c.08.42.15.83.23,1.25L5,86.41a1.83,1.83,0,0,0,0,2.38l7.87,8.86a1.89,1.89,0,0,0,2.43.33c2.67-1.74,5.29-3.62,8.09-5.26.94-.55,1.68-.43,1.82.86.28,2.62.57,5.26.75,7.94a4.16,4.16,0,0,0,3.87,4.11c2.86.19,5.76.36,8.68.48a3.47,3.47,0,0,0,3.67-2.84c.61-2.87,1.35-5.35,1.94-8.26a.83.83,0,0,1,1.32-.37c2.49,2,4.81,3.65,7.24,5.64a3.36,3.36,0,0,0,4.52-.29c2.27-2,4.5-4.09,6.75-6.08,1.5-1.32,1-4,.53-4.64-1.67-2.63-3.41-5.17-5.09-7.71-.24-.29,0-.82.59-.88,3.13-.32,6.22-.65,9.26-.94,2.77-.27,3.35-2.85,3.5-3.56a39.63,39.63,0,0,0,.46-8.89A3.83,3.83,0,0,0,69.86,63.72Z"/><path class="cls-1" d="M23.79,69.3h0C23.7,69.28,23.74,69.29,23.79,69.3Z"/><path class="cls-1" d="M23.79,69.29h0C23.87,69.31,24,69.32,23.79,69.29Z"/><path class="cls-1" d="M23.79,69.29c.35,0,1.65-4.15,1.94-4.7A12.92,12.92,0,0,1,29.81,60a12.55,12.55,0,0,1,7-2.07c5.68.15,9.14,5.55,9,11.32.05,6.51-3.51,11.61-9.94,11.3A12.17,12.17,0,0,1,27,75.86c-.52-.67-3-6.55-3.16-6.56h0c-.89,0-.21,4.22-.13,4.55a13.4,13.4,0,0,0,4.43,7,14.43,14.43,0,0,0,13.84,2.49c6.3-2.06,10.56-6.74,10.56-14.76,0-9.16-8-14.28-15.78-14A14.25,14.25,0,0,0,27,58.81C26.24,59.59,21,69,23.79,69.29Z"/><path class="cls-1" d="M57.54,24.89c.37-.14.91-4.54,1.31-5.13a4.6,4.6,0,0,1,2.38-2l0,0c1.64-.71,4.21.08,5.5,2.47.57,1.32,1.35,4.82-1.24,6.06-.09,0-1.27.5-1.5.57a6.36,6.36,0,0,1-4.11-.58c-.44-.22-1.85-1.63-2.38-1.37-.91.45,1,2.89,1.32,3.17a7.5,7.5,0,0,0,8.21,1.32c3.75-1.66,6.32-6.39,5.08-10.22-1.52-4.74-7.49-6.69-12-4.71a7.86,7.86,0,0,0-3.47,3.26C56.08,18.69,55.3,25.73,57.54,24.89Z"/><path class="cls-1" d="M85.54,19.17h0l-4-1.56-2-.79-1-.4-.16-.06c-.66-.25-1-.68-.65-1.92.77-2.61,1.52-5.2,2.27-7.74h0a2,2,0,0,0-.8-2.2c-1.34-.88-2.62-1.82-4-2.62a3.22,3.22,0,0,0-4.19.45c-1.34,1.12-2.68,2.2-4,3.28a3.08,3.08,0,0,1-3.7-.21c-1.41-1.46-2.78-2.91-4.16-4.28A3.34,3.34,0,0,0,55.28.3c-1,.48-1.94,1-2.87,1.47A4,4,0,0,0,50.5,6.12c.32,1.93.68,3.78,1,5.57a2.59,2.59,0,0,1-1.8,2.41l-7.64,2.08-.08,0a1.07,1.07,0,0,0-.79,1c0,2.12-.1,4-.14,5.72V23a.85.85,0,0,0,.58.82c5.29,1.75,8.33,2.59,8.45,2.28s-2.23-1.48-6.51-3.4a1,1,0,0,1-.57-1c.1-.88.2-1.82.31-2.81a1,1,0,0,1,.75-.85c2.16-.45,4.53-.89,7.07-1.48,3-.68,3.73-2.91,3.52-4.24v-.06c-.29-2.13-.6-4.37-.92-6.69a1,1,0,0,1,.54-1l1.64-.78A.94.94,0,0,1,57,4.06c1.49,1.61,3.72,4,5.36,5.64a3.71,3.71,0,0,0,2.4,1,4.35,4.35,0,0,0,2.87-.79l0,0,5.12-4.08a1,1,0,0,1,1.13-.05l1.19.8a1,1,0,0,1,.39,1.07c-.62,2.07-1.22,4.17-1.88,6.28C73.2,15.23,73,18.61,76,19.77H76l.07,0,.13.05.25.09.52.2,1,.4,2,.78,2,.77a1,1,0,0,1,.61,1l-.09,1.4a1,1,0,0,1-.72.87c-2.15.53-3.8.52-5.88,1h0a7.27,7.27,0,0,0-3.55,1.89c-.66.75-1,1.55-.7,3.51q.57,3.38,1.12,6.61a1,1,0,0,1-.52,1l-1.55.79A1,1,0,0,1,69.67,40l-4.75-4.83c-1.08-1.29-3.69-2.34-5.57-.74l-5.42,4.62a1,1,0,0,1-1.13.08l-2.23-1.38a1,1,0,0,1-.41-1c.54-2.17,1-4.05,1.33-5.59a3.91,3.91,0,0,0-.09-2.66c-.71-1.57-1.16-2.38-1.33-2.33s0,.85.28,2.29a4.72,4.72,0,0,1-.16,2.2c-.64,1.84-1.5,4.17-2.45,7a1,1,0,0,0,.36,1.14l.07.05,4.65,3.34a1.56,1.56,0,0,0,1.66.12l.07-.05c1.84-1.41,3.78-3,6-4.57A1.94,1.94,0,0,1,63.2,38c1.64,1.93,3.5,3.81,5.37,5.85a1.69,1.69,0,0,0,2,.38l0,0,5.17-2.46a1.79,1.79,0,0,0,1-1.85V39.8c-.37-2.5-.63-4.28-1-6.92a2.35,2.35,0,0,1,2.1-2.57l7.08-1.66a2,2,0,0,0,1.5-1.76v0c.13-1.88.27-3.79.4-5.71A2,2,0,0,0,85.54,19.17Z"/></g></g></svg>