<svg xmlns="http://www.w3.org/2000/svg" viewBox="0 0 562.92 63.4"><defs><style>.cls-1{fill:#e4d4a2;}</style></defs><title>introduction_text-illustration</title><g id="Layer_2" data-name="Layer 2"><g id="Layer_1-2" data-name="Layer 1"><path class="cls-1" d="M435.22,25.81l-3,1.76c1.15,1.21,1.52,2,1.9,2,18.11,0,36.22,0,53.38,0,3.95-2.3,4.88-5.58,6.52-8.28,3-5,6.89-8.56,12.92-9.52a33.7,33.7,0,0,0,6.63-2.2c1.8-.7,3.45-.84,4.64.93,1,1.51.19,2.81-.92,3.82-3.37,3.09-4.87,7.24-6.47,11.31a12.38,12.38,0,0,0-.33,3.34,10.87,10.87,0,0,0,11.79-1.83c8.12-7.14,16.81-6.9,26.24-3.34,3.5,1.32,7.35,1.67,11,2.63.94.25,1.73,1.11,3.35,2.2l-6.44,2.52c-4.62,1.81-9.3,3.48-13.84,5.46-8.46,3.69-8.77,3.83-19,3.32-1.63-1.58-3.18-4-5.38-5-2.57-1.13-5.68-1.26-8.57-1.34-14-.36-28-.55-41.95-.81-.73,2.6,1.47,2.3,2.27,3.21,1.15,1.29,2.67,2.36,3.44,3.84,1.2,2.32,1.75,5,2.85,7.34s2.49,4.44,4.16,7.37a67,67,0,0,1-22.1-3.32A13.9,13.9,0,0,1,454.63,49c-3-2.28-4.61-5.21-3.77-9.12.41-2,.76-4,1.14-6-9.72-1.67-51.56-.93-62.24,1.07-.74,2.5,1.58,3.44,2.7,4.91,3.63,4.76,4.34,10.12,3.31,15.79-.24,1.3-1.26,2.46-2.09,4C392.3,59,391,58.8,390.34,58c-2.62-3-6.27-4.18-9.6-6-5.77-3.09-6.55-4.94-5.15-11.32.37-1.66.81-3.29,1.33-5.36A66.11,66.11,0,0,0,361,33.86c-17.23.59-34.46,1.31-51.68,2a30.25,30.25,0,0,0-3.38.49c.13.82,0,1.61.32,1.83,6.63,4.78,8.41,12.45,11.49,19.31.91,2-.14,3.94-2.08,5.42-.73-.15-1.74-.06-2.35-.51a58.51,58.51,0,0,0-16.15-8.65c-5.91-2-9.17-6-8.45-12.62.12-1.12,0-2.26,0-3.77-1.94-.43-3.59-1.13-5.24-1.12q-27.63.09-55.26.39a43.59,43.59,0,0,0-4.83.64c1.73,3.64,4.85,4.91,6.88,7.16a72.29,72.29,0,0,0,6,6.38c2.46,2.14,5.07,4,4.56,8.32-3.69,1.89-7.79.73-11.52-.06A122.35,122.35,0,0,1,212.53,54c-7.19-2.65-8.94-6.08-8.07-14.19a7.92,7.92,0,0,0-.52-2.1,55.41,55.41,0,0,0-5.7-.59q-29.37-.35-58.74-.56a9.87,9.87,0,0,0-2.66.86c1.89,4.45,4.36,8.52,5.3,12.92,1,4.77,7.44,6.23,6.56,11.74-1.79,1.9-3.91,1.38-5.75.64-10-4-20.49-7.06-28.22-15.91.78-3,1.56-6,2.5-9.65C115.52,36.74,114,36,112.38,36c-16.65-.38-33.31-.66-50-.93a4.21,4.21,0,0,0-1.42.5L74.12,54.35c-2.6,6.19-3.26,6.7-8.05,5.07-5-1.7-9.94-3.47-14.72-5.64-5.4-2.44-7.53-5.29-6.17-11,.46-1.9.08-4,.08-5.81-2.19-2.59-5-2.1-7.51-2-8.18.24-16.35.67-24.53,1-3.52.16-7.06.3-10.24-1.56-.85-.5-1.41-1.51-3-3.25L18.06,32c.24-2,.52-3.7.61-5.37s0-3.51,0-5.26c0-5,2.19-8.31,7.19-9.64,3.1-.83,6.16-1.83,9.2-2.87,5.81-2,11.61-4,17.36-6.11,2.88-1.09,5.53-1.65,8.53,1-1.2,1.18-2.25,2-3.11,3.09-2,2.45-4.47,4.74-5.84,7.54A22.86,22.86,0,0,1,39.67,26.19c-2.07.83-3.82,2.46-5.62,3.66a6,6,0,0,0,.36,1.2,1,1,0,0,0,.66.42c15.48.09,31,.18,46.45.19a8.4,8.4,0,0,0,2.59-1c-.26-3.22-.54-6.38-.77-9.55-.4-5.66,2.3-9.46,7.25-11.87a15.16,15.16,0,0,1,1.61-.67l24-8.54c1.93,1.26.79,2.9-.07,4.32-5.26,8.73-9.93,17.84-16.74,25.35.69,2.16,2.34,1.87,3.68,1.9,6.43.16,12.87.22,19.3.33,10.22.17,20.45.45,30.68.52,4.28,0,8.65.58,13.46-.77-.65-2.3-1.35-4.15-1.68-6.06-.84-4.83.57-7.75,4.77-10.32A10.49,10.49,0,0,1,172,14.09c8.08-2.5,16.18-5,24.3-7.38.72-.21,1.64.25,2.88.47-.75,2.08-1.36,4-2.12,5.79-.89,2.16-2,4.22-2.84,6.41-.9,2.45-1.27,5.14-2.41,7.46-.94,1.92-2.67,3.46-4.73,6,20.21.4,39.36.46,59,.12.19-2.53.41-4.48.47-6.43.15-5.12,2.17-9.28,7-11.15,6.53-2.49,13.24-4.54,19.93-6.57,1.24-.38,2.78.22,4.95.46l-12.17,22c2.35,2.14,5.38,1.57,8.08,1.61,9.06.14,18.13.19,27.19,0,9.9-.24,19.79-.84,29.21-1.26,2.12-2.29,1-4.39,1.06-6.32.09-5.21,2.34-9.36,7.05-11.18,8.4-3.25,17.07-5.81,25.63-8.63.18-.06.48.25,1,.55a5.18,5.18,0,0,1,.17,2.19c-1.91,5.21-4.1,10.31-4.61,15.93-.23,2.57-1.9,4.15-4.33,5-1.24.44-3-.21-3.69,1.6,6.66.87,45.22.67,54-.34a20.17,20.17,0,0,0,3.55-1.12c-.38-2-.68-3.63-1-5.29-1.22-5.9-.28-8.74,4.76-11.84a44.42,44.42,0,0,1,9.52-4.39C429.14,6,434.38,4.26,439,.18c1,1.06,2.35,1.9,2.27,2.56-.76,6.65-1.76,13.27-2.7,19.89-.3,2-1.72,2.93-3.54,3.39,2.55-8.95,2.57-9.25,1-14.79a47.65,47.65,0,0,0-14.81,15.2c-.17.29.31,1,.61,1.81,1-.1,2.16-.12,3.25-.33C428.45,27.25,431.83,26.52,435.22,25.81ZM209,50.34l4.08-.38c-.11-.37-.23-.74-.34-1.11L209,50.38a14,14,0,0,0,1.6-2.82c.18-.6-.29-1.42-.54-2.12,0-.08-.7-.11-.77,0a4.21,4.21,0,0,0-.83,1.87A16.52,16.52,0,0,0,209,50.34Zm-35.15-29c-2.33.62-2.17,2.28-1.45,3.93.15.33,1.32.22,2.42.36-.47-1.76-.82-3.11-1.2-4.47.32-.65.66-1.3.94-2,0-.05-.32-.25-.49-.38C174,19.62,174,20.46,173.88,21.3ZM121.82,38.11c-1.44,2.53-2.5,3.92-3,5.48a3.79,3.79,0,0,0,.39,3.21,34.25,34.25,0,0,0,6.51,5.53c2.8,1.72,5.68,3.77,10,3.32C132.17,48.89,126.62,44.68,121.82,38.11ZM91.08,28.42c4.47.23,6.9-1.75,9.12-4.08,3.5-3.69,6.89-10.58,7.48-15C99.46,14.47,94.28,20.28,91.08,28.42Zm454.54,2.49a8.72,8.72,0,0,0-2.41-.53c-5.49.57-11,1.14-16.44,2-.7.11-1.45,1.58-1.66,2.54-.11.47.83,1.56,1.49,1.77C532.34,38.5,539.8,36.25,545.62,30.91ZM346.94,27.83l10.63-2.54c.51-2.67,1-4.92,1.33-7.19.07-.43-.44-.94-.68-1.42C352.18,20.18,352.18,20.18,346.94,27.83ZM49.86,41.44c-1.69,3.48-2.16,6-.12,7.68,3.55,3,7.54,5.21,13.61,5.1A122.22,122.22,0,0,0,49.86,41.44ZM177.68,29.3a12.2,12.2,0,0,0,9.47-1.67c2.86-1.78,4-4.53,2.42-8.63A28.28,28.28,0,0,0,177.68,29.3ZM21.29,23.81c.67,1.77.78,3.19,1.52,3.68s2.18,0,2.93-.54c3.93-3,4.46-7,3.13-12.12-1.16.94-2.42,1.46-2.64,2.26-.45,1.62-.27,3.4-.48,5.09-.06.46-.58.87-.89,1.29Zm27-10.32a54.61,54.61,0,0,0-12.42,9.13c-.93.9-1.2,1.88.28,3C40.66,23,46.22,21.47,48.33,13.49ZM379.75,40c-2,7.57-.93,8.89,8.19,11.21A35.48,35.48,0,0,0,379.75,40Zm-161.2,1.15c6.34,6.8,7,7.22,12.3,8.05C227.15,46,224.83,42.38,218.55,41.19ZM304.67,52.5a57.62,57.62,0,0,0-12-9.1c.29,2,.09,3.34.66,4C295.81,50.27,298.86,52.23,304.67,52.5ZM414.92,24.18c.74-2.57,1.47-4.93,2.06-7.33.1-.4-.41-1-.64-1.42C411.1,19.4,410.86,20.57,414.92,24.18Zm-147.51-3a16.23,16.23,0,0,0-7.72,6.43C265.57,26.89,265.57,26.89,267.41,21.15ZM48.79,9.57l-.87-1.73c-2.61,1-5.26,1.91-7.8,3.07-.41.19-.63,1.68-.33,2.22a2.58,2.58,0,0,0,2.07.56C43.45,11.25,45.92,10.15,48.79,9.57ZM470.05,43.2c-.84-4-.84-4-5.47-5.34C465.66,40.76,467.68,41.93,470.05,43.2ZM342,24.51c2-3.55,2.72-5.72.91-8.81C341,18.59,340.32,20.76,342,24.51ZM86.41,23.73l1.9-.09c.06-1.54.19-3.08.13-4.61,0-.27-.81-.74-1.21-.7s-1.1.58-1.1.91C86.11,20.73,86.3,22.23,86.41,23.73ZM33.89,18.25c.24-.09.57-.11.76-.29,1.37-1.29,1.64-3.63.51-4.42a.93.93,0,0,0-.76-.11c-1.28.48-1.8,2.69-1,4.32C33.48,18,33.71,18.08,33.89,18.25Zm473,6.59c-1.18-1.36-2-.18-2.76.39a38.19,38.19,0,0,0-3,2.95C504.93,28.36,506.46,27.43,506.9,24.84Zm-157-10.59c-.28.06-.73,0-.81.2-.49.92-.89,1.89-1.32,2.84l2,.74c.23-1,.48-2.05.64-3.09C350.4,14.74,350.05,14.48,349.88,14.25Zm-93.07,5.52c-.88.41-1.71.62-1.71.83a21.57,21.57,0,0,0,.37,3c.61-.26,1.7-.46,1.73-.77A12.46,12.46,0,0,0,256.81,19.77ZM465.19,45.36c-.81-2-1.7-4-4.21-2.22ZM336.88,27.06c0-1.62,0-2.67,0-3.71,0-.19-.42-.37-.64-.55a21.23,21.23,0,0,0-1,2.83C335.15,25.84,335.86,26.22,336.88,27.06ZM178.67,18.13c.25.61.54,1.29.82,2,.18-.18.56-.4.53-.55-.13-.73-.37-1.44-.57-2.15Zm83.19-.95c-.3.45-.83.9-.83,1.35s.54.89.84,1.33a8.49,8.49,0,0,0,1.05-1.78C263,17.92,262.24,17.49,261.86,17.18ZM186,16.39c.43-.27,1.09-.46,1.22-.84s-.21-1-.35-1.48c-.45.27-1.16.44-1.3.82S185.8,15.88,186,16.39Zm63.3,10.41.58.61a8.55,8.55,0,0,0,.58-1.41c0-.17-.33-.42-.51-.64ZM224.64,53.38c.41.28.8.77,1.21.78s.9-.42,1.35-.66c-.43-.28-.83-.76-1.27-.78S225.07,53.14,224.64,53.38Z"/></g></g></svg>