<svg width="210" height="153" xmlns="http://www.w3.org/2000/svg" xmlns:xlink="http://www.w3.org/1999/xlink"><defs><path id="a" d="M59.585 101.558H.236V.342h59.35v101.216z"/><path id="c" d="M16.055.199V5.33H.021V.2h16.034z"/><path id="e" d="M.336.318h3.65v16.363H.336V.318z"/></defs><g fill="none" fill-rule="evenodd"><g transform="translate(74.089 36.124)"><mask id="b" fill="#fff"><use xlink:href="#a"/></mask><path d="M36.225.912C18.991-2.368 2.85 8.642.464 30.338-2.373 56.13 22.282 65.813 21.532 72.64c-.751 6.827-7.228 5.3-7.68 10.057-.303 3.191 25.914-10.967 25.513-7.325-.4 3.64-22.073 10.929-22.657 16.239-.417 3.793 23.018-6.573 22.701-3.69-.25 2.275-15.505 6.632-15.889 10.122-.216 1.972 2.564 3.2 5.142 3.483 2.578.284 5.827-1.354 7.307-3.648 0 0 1.302-2.637-2.39-2.536-.388.011-.56-.28-.112-.502 4.187-2.081 11.542-5.2 11.873-8.215.701-6.372-21.777 4.051-21.543 1.928.234-2.124 24.987-10.987 22.647-15.733-2.419-4.906-14.43 1.333-19.688 2.722-1.269.335-1.823-.356-1.582-1.694.212-1.173.628-2.628-.504-5.042-3.891-8.29-22.31-15.814-19.924-37.51C7.132 9.6 23.929 4.832 34.738 6.785 45.089 8.655 48.62 18.749 50.6 22.82c1.98 4.07 9.538 3.157 8.952-2.386C58.968 14.89 51.464 3.81 36.225.912" fill="#C7942B" mask="url(#b)"/></g><path d="M113.442 80.175c-.417.132-.85.26-1.293.379.14-2.075.314-3.7.522-4.49.642-2.429 4.257-4.514 5.379-2.939 2.088 2.934-1.777 6.15-4.608 7.05m-18.188-4.52c0-3.745 2.335-3.705 2.941-3.705 2.652 0 4.315 4.612 5.165 8.857-4.642-.965-8.106-3.363-8.106-5.151m20.738-7.17c-6.556.794-6.69 7.997-6.508 12.608a15.164 15.164 0 0 1-2.802.122c-.997-7.546-4.095-12.769-8.929-12.769-4.067 0-6.603 3.239-6.603 6.059 0 5.439 5.948 7.25 12.463 7.689.3 1.832.443 3.483.441 4.505-.008 5.05-.483 12.512-1.548 18.074-.465 2.431 3.405 4.345 3.482.524.106-5.233 1.045-13.243 1.045-18.477 0-1.567-.077-3.076-.224-4.512l.528.003c.767 0 1.497-.028 2.197-.076.03.64.054 1.197.05 1.637-.059 6.05-.72 14.935-1.332 18.067-.695 3.552 3.78 4.231 3.46.593-.145-1.66-.07-13.142.35-20.587 6.357-1.049 9.305-4.142 9.627-6.313.79-5.317-2.698-7.511-5.697-7.147" fill="#C7942B"/><g transform="translate(143.654 85.191)"><mask id="d" fill="#fff"><use xlink:href="#c"/></mask><path d="M.044 1.57c-.732 1.983 16.12 4.89 16.011 3.307C15.967 3.6 1.538-2.478.044 1.571" fill="#C7942B" mask="url(#d)"/></g><path d="M149.102 33.458c-.987-.817-15.327 5.469-13.422 9.34.933 1.896 14.643-8.33 13.422-9.34M158.432 63.542c-.558-1.153-16.211-1.407-16.089 2.907.06 2.112 16.78-1.48 16.089-2.907" fill="#C7942B"/><g transform="translate(101.839 14.062)"><mask id="f" fill="#fff"><use xlink:href="#e"/></mask><path d="M2.375 16.675c2.078.38 2.037-16.73.498-16.351C1.63.631-1.867 15.9 2.375 16.675" fill="#C7942B" mask="url(#f)"/></g><path d="M71.4 43.548c1.607-1.372-11.68-12.145-12.357-10.711-.547 1.158 9.077 13.513 12.357 10.711M65.266 74.41c.529-2.047-16.53-3.24-16.263-1.678.216 1.263 15.183 5.855 16.263 1.677M60.603 104.046c.969.837 15.44-5.139 13.619-9.05-.892-1.916-14.818 8.013-13.619 9.05" fill="#C7942B"/></g></svg>