<svg xmlns="http://www.w3.org/2000/svg" viewBox="0 0 116.25 123.77"><defs><style>.cls-1{fill:#cd9f00;}</style></defs><title>meditations@2x</title><g id="Layer_2" data-name="Layer 2"><g id="Layer_1-2" data-name="Layer 1"><path class="cls-1" d="M61.38,17.31c-1.72,0-2.7-.74-2.94-.62-.5.25.85,1.84,2.94,1.84a6.14,6.14,0,0,0,3.81-1.59l-.86-1A4.54,4.54,0,0,1,61.38,17.31Z"/><path class="cls-1" d="M51.68,17.8A3.13,3.13,0,0,1,49,16.2c-1.47.74-1.47,1-1.47,1,0,.37,1.72,1.72,3.81,1.72s3.43-1.72,3.19-2S53.77,17.8,51.68,17.8Z"/><path class="cls-1" d="M101,93.41c-6.14-2.21-14.85-5.65-16.45-8.71s-.74-10.44-.12-15.23,2.08-11,2.08-15.46a14.66,14.66,0,0,0-3.8-10.07,12.91,12.91,0,0,0-6.38-3.8,36.68,36.68,0,0,0-6.26-1c-5.4-.62-6.51-4.91-6.51-6.39a21.2,21.2,0,0,1,1.23-6.38,12.13,12.13,0,0,1,2.94-5.15c.62-.62.74-1.35.86-3.07a4.63,4.63,0,0,0-1-3.32c-.61-.73-.74-1.22-.74-3.43C66.9,2.21,59.29,0,55.49,0a10.59,10.59,0,0,0-7.86,3.56c-2.45,2.45-3.19,7.61-3.19,9a38.92,38.92,0,0,0,.74,4.17,13.53,13.53,0,0,0-.49,2.58c0,2.95,3.31,5.65,3.93,6.38a14,14,0,0,1,2.7,7.12c0,4.67-7.86,5.65-10.07,6.51-10.06,3.93-10.8,11.41-10.8,15.59S32,64,32,70.21c0,7.37-3.43,11.42-7.73,15C20.88,88,11.18,90.46,6.15,95.74c-6.88,7.12-6.39,9.7-5.9,13.87s1.6,3,1.6.49c0-4.17.74-6.5,5.89-11.53S19.4,93,26,89a20.28,20.28,0,0,0,9.82-17.06c0-6-2.58-12.64-2.58-18.29A11.61,11.61,0,0,1,39,43.45c2.21-1.35,8.72-3.31,13.87-5.15s8.35-4.79,8.72-4.79,1.1,3.19,2.45,4.54c1.6,1.6,5.89,3,10.93,3.44,5.27.61,7.61,5.15,7.61,10.19S79.3,75.37,79.3,77.58s-.37,7.12,2.83,10.31c6.5,6.38,16.93,3.8,27.12,13.25a15.39,15.39,0,0,1,4.54,10.19c0,3.19-1.59,5.28-4.42,5.28,0,0-2.82,0-6.5-2.7a7.53,7.53,0,0,0,2.7-1.47,29.77,29.77,0,0,0,2.09-3.32c.49-.86,2-1.84,2-2.21.12-.86-1.72-1.59-3.31-1.59a11.78,11.78,0,0,0-4.67,1.47,9.31,9.31,0,0,1,.86-3.68c.49-1,2.21-1.23,2.21-1.6s-1-1-2.45-1A9.84,9.84,0,0,0,95.5,104,21.83,21.83,0,0,0,94,100.16a4.14,4.14,0,0,1-.61-2c.12-.49-.25-1.48-1-1.48-.5,0-3.44,4.18-3.44,7.25-1.84-2.58-5.77-2.46-7.73-2.34s-.86,1.6-.13,2.21a3.25,3.25,0,0,1,.74,2.7,5.71,5.71,0,0,0-2.45.49c-2.21,1-4.42,3.44-4.42,3.81s1.35.49,2.57.49,3.07,2.21,5,3c-.62.24-5,3.68-6.75,5s-.25,2.45.36,2.09a8.43,8.43,0,0,1,5-2.09c2.57,0,5.52,1.23,8.1,1.23a6.4,6.4,0,0,0,4.54-2.21c.49,1.1,1.84,4.42,5.65,4.42s16.69-3.56,16.69-9.45C116.25,100.53,107.53,95.74,101,93.41ZM57.21,30.69c-4.67,0-5.89-2.46-7.61-5.77a12.8,12.8,0,0,1-2.7-3.68,3.74,3.74,0,0,1-.25-3.56c.25-1.11-.49-4.18.12-6.39,1-3.8,4.79-8.59,10.44-8.59,2.82,0,7.24,1,7.85,7.49.49,4.54,1.48,5,2.09,5.52s-.12,4.79-1.1,5.77C64.57,23.2,63.35,30.69,57.21,30.69Zm48.11,75.85c1.72-.24,2.09.25,1.85.37-1.35.74-1.23,1.72-3.07,3.44a8.46,8.46,0,0,1-4.54,2.21,7.07,7.07,0,0,0,2.08-4.91A16.06,16.06,0,0,1,105.32,106.54Zm-9.45-1a15.83,15.83,0,0,1,4.42-3.19c1.11-.49,1.35-.24,1,0-.86.74-1.22,4.66-2.33,6.26a5.72,5.72,0,0,1-4.17,2.7A9.22,9.22,0,0,0,95.87,105.56Zm-3.68-6.14c.61,0,1.84,4.06,1.84,6.88s-1.59,4.17-2.58,4.17-1.71-1.23-1.71-4.42S91.82,99.42,92.19,99.42ZM84.46,103a8.14,8.14,0,0,1,4.29,1.85c.13.24-.24.73-.12,2.33a7.26,7.26,0,0,0,.86,3.31c.12.25-1,.49-3.44-.86s-2.45-3.31-2.7-4.17a10.43,10.43,0,0,0-1.1-2.46C82.13,102.62,84.46,103,84.46,103Zm-2.95,8.35c-1.84-.86-3.56-1.35-3.44-1.59,0-.74,3.44-2.21,3.69-2.21s.37,1.47,1.59,2.82,3,1.84,2.83,2.33S83.23,112.07,81.51,111.33Zm12.28,4.91c-.13.49-1.48,1.84-4.42,1.84s-8-.73-8-1S85,115,85.32,114.89a20.67,20.67,0,0,0,3.56-1A20.91,20.91,0,0,1,91,112.8a5.67,5.67,0,0,0,2,.74,2.7,2.7,0,0,0,1.59-.49,5.66,5.66,0,0,0,1,.74A3.76,3.76,0,0,0,93.79,116.24Zm5.64,3.68c-3.68,0-3.93-1.71-3.93-2.94,0-.86,0-2.33,3.2-2.33s8.22,2.7,8.22,3.06S103,119.92,99.43,119.92Z"/><path class="cls-1" d="M27.12,94.38a12.68,12.68,0,0,0,4.7-1.46,18.78,18.78,0,0,0,5.67-4.66,23,23,0,0,0,2.45-3.58,24.89,24.89,0,0,0,1.85-4.29,35.6,35.6,0,0,0,1.43-8.73,51.56,51.56,0,0,0-.26-7.1c-.43-4-1-6.42-1.33-6.4s-.43,2.52-.46,6.48c0,2-.07,4.32-.28,6.88a41.52,41.52,0,0,1-1.52,8.11,26.56,26.56,0,0,1-1.61,3.87,25.59,25.59,0,0,1-2.09,3.31,20.21,20.21,0,0,1-4.76,4.57c-3.15,2.12-5.67,2.38-5.61,2.81C25.32,94.34,26,94.47,27.12,94.38Z"/><path class="cls-1" d="M59.92,111.69l-1.25-.07c-.46,0-1,0-1.51.08a32.19,32.19,0,0,0-3.69.41l-2.11.36c-.73.14-1.47.34-2.25.52-1.56.35-3.18.85-4.9,1.35-3.4,1-7.08,2.34-10.91,3.58a73.08,73.08,0,0,1-10.91,2.67,38.82,38.82,0,0,1-9,.41c-5.16-.4-8.15-1.91-8.37-1.46-.09.17.54.76,1.89,1.51a20.8,20.8,0,0,0,6.2,2.08,33.2,33.2,0,0,0,9.72.47,59.26,59.26,0,0,0,11.47-2.55c3.92-1.27,7.56-2.63,10.87-3.81,1.65-.57,3.22-1.14,4.69-1.58.74-.23,1.45-.48,2.14-.68l2-.53c5-1.34,8.37-1.81,8.32-2.3C62.26,111.94,61.43,111.79,59.92,111.69Z"/></g></g></svg>