<svg xmlns="http://www.w3.org/2000/svg" viewBox="0 0 140.07 96.18"><defs><style>.cls-1{fill:#cd9f00;}</style></defs><title>balancing@2x</title><g id="Layer_2" data-name="Layer 2"><g id="Layer_1-2" data-name="Layer 1"><path class="cls-1" d="M74,76.71c-.16.23-1.85-1-5.08-2.46a37.44,37.44,0,0,0-14.62-3.18A48.11,48.11,0,0,0,44,72c-.91.21-1.84.37-2.77.63L39.84,73l-1.45.47c-1,.33-2,.61-2.93,1l-2.87,1.14a106,106,0,0,0-11.87,6c-2,1.19-4,2.41-6,3.71l-3.07,2-.78.5-.38.25-.2.12-.1.06,0,0h0c.08.18-.75-1.54-.4-.8l-.07.28c0,.07.17.08.25.07s.13,0,.18,0h.07a2.14,2.14,0,0,0-.3,0,.84.84,0,0,0-.29.1.43.43,0,0,0-.19.14h0v0h0c-.09.24.7-2.07.38-1.09l.22.08.44.15.88.3,1.75.6,3.44,1.12c2.29.72,4.55,1.39,6.78,1.94a59.76,59.76,0,0,0,13,1.89,48.48,48.48,0,0,0,21.57-4.68,49.9,49.9,0,0,0,7.46-4.28c1.08-.69,2-1.47,2.86-2.11l2.3-1.92c1.32-1.22,2.36-2.17,3-2.85s1.12-1,1.21-.9-.15.53-.69,1.34A30.17,30.17,0,0,1,71.29,81c-.64.66-1.35,1.41-2.17,2.2s-1.72,1.61-2.78,2.4a46.76,46.76,0,0,1-7.53,4.9,48.44,48.44,0,0,1-22.65,5.64,59.66,59.66,0,0,1-13.75-1.79c-2.33-.54-4.66-1.22-7-1.94-1.17-.36-2.34-.76-3.52-1.14l-1.75-.6-.88-.3-.44-.15-.22-.07a2.83,2.83,0,0,1-.8-.48,2.83,2.83,0,0,1-.49-.66,2.86,2.86,0,0,1-.21-.6,2.73,2.73,0,0,1,0-1.06,1.8,1.8,0,0,1,.11-.5,2.24,2.24,0,0,1,.23-.55,3.21,3.21,0,0,1,.46-.6L8,85.58l.23-.18h0l.05,0,.09-.07.2-.12L9,84.92l.78-.5c1-.67,2.07-1.33,3.11-2,2.06-1.3,4.14-2.53,6.18-3.73a102.53,102.53,0,0,1,12.36-6l3.1-1.14c1-.36,2-.61,3-.92L39,70.19l1.55-.37c1-.25,2-.39,2.95-.58a46.89,46.89,0,0,1,10.93-.53,34.66,34.66,0,0,1,15.1,4.38C72.75,75,74.08,76.56,74,76.71Z"/><path class="cls-1" d="M52.75,69.72c0,.1-.42.12-1.14-.07a8.58,8.58,0,0,1-2.92-1.5c-2.32-1.73-4.75-5.21-6.55-9.82L40.7,54.81c-.25-.62-.51-1.24-.75-1.89l-.64-2.05c-.43-1.4-.87-2.84-1.32-4.33a21.26,21.26,0,0,1-.56-2.29c-.16-.77-.33-1.56-.5-2.36s-.33-1.61-.51-2.42l-.25-1.24L36,37c-.21-1.7-.41-3.43-.62-5.2l-.08-.66,0-.34v0c0-.09,0,.19,0-.22v-.23l0-.16a2.72,2.72,0,0,1,.17-.62,3.23,3.23,0,0,1,.27-.44,2.2,2.2,0,0,1,.91-.74,2.07,2.07,0,0,1,1.52-.08,2.43,2.43,0,0,1,.9.59l1,.94.89.75a27.86,27.86,0,0,0,4.36,2.75c3.17,1.65,6.56,3,9.74,4.73a25.68,25.68,0,0,1,4.51,3l1,.79,1,1,.94,1,.82,1a33,33,0,0,1,4.91,8.12c.27.68.56,1.35.8,2l.67,2,1.09,3.66a65.47,65.47,0,0,1,2.53,11.33c.06.68.11,1.29.15,1.82s0,1,0,1.35c0,.73-.1,1.11-.22,1.12s-.27-.36-.45-1c-.1-.35-.2-.77-.31-1.28L71.94,72a113.19,113.19,0,0,0-3.5-10.83l-1.29-3.57c-.24-.6-.47-1.21-.71-1.83s-.56-1.22-.84-1.85a32.06,32.06,0,0,0-4.72-7.26l-.75-.86-.81-.77-.81-.78-1-.77a23.26,23.26,0,0,0-4.07-2.62c-3-1.58-6.33-2.88-9.73-4.65a29.26,29.26,0,0,1-4.89-3.11l-1.16-1-.94-.95c-.18-.19.07.12.37.2a1.24,1.24,0,0,0,.88,0A1,1,0,0,0,38.4,31a.51.51,0,0,0,.09-.16.64.64,0,0,0,.08-.3v.14c0-.4,0-.1,0-.19v0l0,.33.06.64c.18,1.7.35,3.38.52,5l.13,1.22.21,1.2c.15.79.29,1.57.44,2.35s.28,1.54.41,2.3a19.21,19.21,0,0,0,.47,2.21c.38,1.44.75,2.83,1.1,4.18l.52,2c.2.65.44,1.29.65,1.92.43,1.25.85,2.45,1.24,3.6,1.46,4.52,3.38,7.85,5.19,9.67A13.34,13.34,0,0,0,51.86,69C52.46,69.4,52.8,69.61,52.75,69.72Z"/><path class="cls-1" d="M73.15,76.08c-.17,0-1.17-1.69-2-5.31a34.22,34.22,0,0,1,.48-15.48,44.3,44.3,0,0,1,3.94-10c.45-.87,1-1.71,1.48-2.58s1.06-1.7,1.74-2.55,1.21-1.63,1.83-2.45S82,36,82.73,35.18a85.89,85.89,0,0,1,9.77-9.42c1.8-1.49,3.66-3,5.58-4.43,1-.73,1.93-1.46,2.91-2.17l1.48-1.08.85-.61.19-.12.13-.08.3-.13c.1-.05.21-.08.31-.12a2.7,2.7,0,0,1,.44-.07,2.38,2.38,0,0,1,.52,0,2.13,2.13,0,0,1,.82.35,1.87,1.87,0,0,1,.58.71,2.21,2.21,0,0,1,.14.41,2,2,0,0,1,0,.26,2.33,2.33,0,0,1,0,.53,2.64,2.64,0,0,1-.07.3,3.64,3.64,0,0,1-.38.85l-.42.74a14.7,14.7,0,0,0-.82,1.55c-.21.51-.45,1-.65,1.49s-.38,1.07-.56,1.6a44.19,44.19,0,0,0-1.45,6.6c-.6,4.45-.71,8.92-1.22,13.22A37.34,37.34,0,0,1,98.05,57.7a28.76,28.76,0,0,1-3,4.83,31.51,31.51,0,0,1-3.55,3.85,43.16,43.16,0,0,1-7.1,5.3,63.78,63.78,0,0,1-5.85,3.1c-3.3,1.52-5.2,2.14-5.29,1.94s1.61-1.24,4.67-3.08a60.74,60.74,0,0,0,11.92-9A31.93,31.93,0,0,0,93,61a26.74,26.74,0,0,0,2.59-4.53,35.69,35.69,0,0,0,2.57-11.21c.42-4.14.45-8.61,1.05-13.33a44.78,44.78,0,0,1,1.52-7.17l.62-1.79c.23-.61.53-1.22.8-1.83a16,16,0,0,1,.87-1.66l.49-.86s0-.11,0,0A1.28,1.28,0,0,0,104,20a1.12,1.12,0,0,0,.6.26,1.17,1.17,0,0,0,.29,0,2,2,0,0,0,.21,0l.1,0a.47.47,0,0,0,.09-.06l-.07,0-.2.12.08-.05,0,0,0,0-.1.07-.18.13-.37.27L103,21.86c-1,.7-1.94,1.42-2.88,2.13-1.91,1.41-3.72,2.86-5.5,4.29a89.34,89.34,0,0,0-9.53,8.93c-.68.77-1.38,1.49-2,2.28l-1.9,2.41c-.59.7-1.11,1.56-1.66,2.31s-1,1.58-1.47,2.38a45.08,45.08,0,0,0-4.08,9.32,37.37,37.37,0,0,0-1.47,14.66C72.83,74,73.43,76,73.15,76.08Z"/><path class="cls-1" d="M73.57,77.16c-.12-.17,1.29-1.52,4.17-3.62a30.79,30.79,0,0,1,5.71-3.24,18.14,18.14,0,0,1,1.89-.71l.51-.16c.25-.08.35-.09.54-.14l1-.24c.69-.17,1.51-.24,2.29-.37s1.58-.13,2.39-.13a49,49,0,0,1,10.49,1.13c3.62.79,7.49,1.42,11.55,2.7l3.09.87c1,.3,2.1.58,3.13,1l6.34,2.29c1.08.37,2.13.84,3.2,1.32l3.22,1.42,3.26,1.45a9.76,9.76,0,0,1,1.87,1.11,3.43,3.43,0,0,1,.64.69,2.9,2.9,0,0,1,.19.34,2.33,2.33,0,0,1,.17.61,2,2,0,0,1-.46,1.46,2.08,2.08,0,0,1-.77.57,3.2,3.2,0,0,1-.49.17,4.32,4.32,0,0,1-.7.11l-3.71,0-1.58.19a6.24,6.24,0,0,0-.74.09l-.86.18-1.71.35c-.57.11-1.06.29-1.6.42l-1.57.44-1.6.52a130,130,0,0,1-12.63,3.72,53.45,53.45,0,0,1-12,1.42A26,26,0,0,1,96,93c-.94-.1-1.8-.11-2.74-.29-.43-.08-.82-.12-1.27-.24l-1.32-.33a21.87,21.87,0,0,1-2.4-.84,28,28,0,0,1-7.49-4.56A29.56,29.56,0,0,1,76.23,82c-2.18-2.87-2.82-4.79-2.66-4.87s1.26,1.53,3.65,4a34.2,34.2,0,0,0,4.7,4.11,28.22,28.22,0,0,0,7.18,3.83c.7.27,1.45.45,2.19.66L92.4,90c.37.08.83.12,1.24.18.76.12,1.65.1,2.5.17a25.6,25.6,0,0,0,2.63,0,53.73,53.73,0,0,0,11.34-1.65c4-1,8-2.37,12.33-3.84l1.64-.54,1.74-.5c.57-.16,1.17-.36,1.74-.47l1.71-.36.86-.18a8.54,8.54,0,0,1,1-.15l1.93-.21,3.44,0,.2,0-.07,0c-.12.06-.13,0-.41.32a.71.71,0,0,0-.12.18,1.31,1.31,0,0,0-.14.29,1.42,1.42,0,0,0-.06.58,1.44,1.44,0,0,0,.1.4,1.09,1.09,0,0,0,.08.15c.09.12.07.08,0,0a3.39,3.39,0,0,0-.5-.32,7.44,7.44,0,0,0-.7-.37l-3.18-1.42-3.13-1.41c-1-.47-2.06-.95-3.12-1.31l-6.16-2.31c-1-.41-2-.69-3-1l-3-.91c-3.85-1.31-7.78-2.06-11.36-3a51.3,51.3,0,0,0-9.88-1.47c-.76,0-1.49,0-2.21,0s-1.34.08-2,.2l-1,.18-.46.09-.46.12a18.49,18.49,0,0,0-1.78.52,37,37,0,0,0-5.67,2.6C75.41,76.36,73.71,77.37,73.57,77.16Z"/><path class="cls-1" d="M99.85,42c0-.11.21-.32.72-.63a14.66,14.66,0,0,1,2.34-1.17,34.89,34.89,0,0,1,9.4-2.39,42.55,42.55,0,0,1,6.73-.27,46.42,46.42,0,0,1,7.7,1,44.2,44.2,0,0,1,8.16,2.73c.67.33,1.38.6,2,1l1,.55.51.27.25.14h0l.23.16,0,0,.06,0,.11.09,0,0,.17.18a4,4,0,0,1,.29.39,2.23,2.23,0,0,1,.32.73,2.7,2.7,0,0,1,0,1.41,2.12,2.12,0,0,1-.29.68,2.46,2.46,0,0,1-1.19,1l-.44.16a16.54,16.54,0,0,0-2.06.69,21,21,0,0,0-3.65,1.93,30.3,30.3,0,0,0-3.29,2.54c-.53.44-1,.92-1.52,1.39s-1,1-1.43,1.46c-1,1-1.91,2-2.79,2.94-3.55,3.85-7.27,7.34-10.77,9.44s-6.84,3.35-9.24,3.36-3.59-.73-3.52-.88,1.3,0,3.38-.42a20.45,20.45,0,0,0,8-4,59.86,59.86,0,0,0,9.85-9.6c3.49-3.86,7.44-8.74,13.79-11.29A18.63,18.63,0,0,1,137.1,45c.07,0,.25-.09.09,0s-.14.09-.22.14a1.79,1.79,0,0,0-.14.18c0,.06-.05.12-.08.17a.76.76,0,0,0,0,.3,1,1,0,0,0,.11.22.73.73,0,0,0,.14.16l.09.06-.05,0-.11-.09-.05,0,0,0,.2.14h0l-.23-.13-.47-.26-.92-.51c-.61-.36-1.26-.62-1.88-.93A44.75,44.75,0,0,0,126,41.53a46.11,46.11,0,0,0-13.52-1.39,50.15,50.15,0,0,0-9.17,1.28c-1.08.2-1.93.46-2.52.56S99.89,42.09,99.85,42Z"/><path class="cls-1" d="M55.37,38.8c-.44-.22,1-4.12,3.75-10.25,1.39-3.06,3-6.71,5-10.65s4.29-8.29,6.71-12.81a19.69,19.69,0,0,1,1.07-1.84c.06-.09.16-.21.26-.33a1.75,1.75,0,0,1,.24-.23l.22-.18a1.69,1.69,0,0,1,.37-.2l.32-.1a1.94,1.94,0,0,1,1.52.32,1.71,1.71,0,0,1,.36.35l.14.19,0,.1a3,3,0,0,1,.17.41,2.76,2.76,0,0,1,.08.44v.26a4.53,4.53,0,0,1-.05.71l0,.14V5.2c0-.22,0,0,0-.1v.05l0,.23-.08.93a4.21,4.21,0,0,0,0,.85,13.78,13.78,0,0,0,.09,1.54,24.59,24.59,0,0,0,1.62,6.24c.77,2,1.71,3.77,2.6,5.55s1.72,3.42,2.39,5a22.68,22.68,0,0,1,2,7.94,5.51,5.51,0,0,1,0,1.3c0,.37-.08.69-.13.94-.09.51-.2.76-.33.76s-.25-.27-.39-.75c-.07-.24-.14-.53-.21-.88a6.41,6.41,0,0,0-.29-1.17,30.72,30.72,0,0,0-2.95-7c-.77-1.43-1.71-3-2.71-4.69a57.12,57.12,0,0,1-3-5.69A26.34,26.34,0,0,1,72.09,9.1,17.48,17.48,0,0,1,72,7a6.23,6.23,0,0,1,0-1l.07-.92,0-.24,0-.3a1.34,1.34,0,0,0,0-.23v0a1.23,1.23,0,0,0,0,.21,1.3,1.3,0,0,0,.13.3l0,.07.11.17a1.52,1.52,0,0,0,.32.3,1.74,1.74,0,0,0,1,.33,1.91,1.91,0,0,0,.37,0,1.12,1.12,0,0,0,.26-.08,1.65,1.65,0,0,0,.27-.14l.13-.1a.23.23,0,0,0,.07-.07l0,0c-.17.24-.53,1-.82,1.47-2.41,4.49-4.75,8.74-6.92,12.59s-4,7.38-5.71,10.28C58.07,35.52,55.81,39,55.37,38.8Z"/><path class="cls-1" d="M75.65,15.65c-.29-.28,1-2.73,4.41-6a36.55,36.55,0,0,1,2.83-2.48c.53-.42,1.07-.88,1.66-1.29l1.83-1.27c.62-.45,1.31-.82,2-1.24s1.39-.84,2.14-1.2,1.5-.78,2.3-1.12L94,.56l.61-.25L95,.18l.08,0h0l.29-.08h.06l.16,0a1.06,1.06,0,0,1,.21,0,4.43,4.43,0,0,1,.51,0,2.74,2.74,0,0,1,.5.08,2.06,2.06,0,0,1,.33.13,3.23,3.23,0,0,1,1.06.71,5.85,5.85,0,0,1,.4.47,5.54,5.54,0,0,1,.32.59A2.71,2.71,0,0,1,99,3.61l0,.22c0-.07,0,0,0,0l0,.15-.08.3-.18.59-.35,1.17c-.26.79-.35,1.49-.53,2.21l-.25,1.06-.18,1.07c-.54,2.83-.77,5.46-1,7.67-.42,4.44-.86,7.24-1.33,7.22s-.86-2.77-1-7.3a51.43,51.43,0,0,1,.33-8l.14-1.16q.1-.59.21-1.2c.17-.79.28-1.68.51-2.43.11-.39.21-.78.32-1.17l.16-.6.09-.3,0-.15,0-.13,0,.07c-.06.46.09.44,0,.42s0,0,0,0h0a.62.62,0,0,0,.38,0s-.07,0-.1,0l-.16,0h-.06l.27-.07h0l-.07,0-.28.12-.56.23-1.12.45c-.74.29-1.44.67-2.15,1s-1.38.7-2,1S88.62,6.85,88,7.24L86.2,8.32c-.59.35-1.13.75-1.67,1.09-1.09.69-2,1.41-2.94,2.05C78.1,14,76,16,75.65,15.65Z"/><path class="cls-1" d="M65.67,19.24c-.25.38-3.1-1-7.51-3.48C56,14.5,53.36,13,50.51,11.2L46.06,8.42,43.72,6.93l-.6-.39-.3-.19h0c-.14.17,1.25-1.56.65-.83h0l0,0-.08-.05c-.08-.07,0,.05,0,.05s.1.17,0,.08a.27.27,0,0,0-.1,0h0c2.06-.38.57-.1,1-.18h0l0,.18c.18,1,.37,1.88.55,2.81s.26,1.91.39,2.84.2,1.86.25,2.76.13,1.77.12,2.63a47.53,47.53,0,0,1-.16,4.87,37.84,37.84,0,0,1-.5,4.2c-.86,5.11-2.16,8-2.56,8s0-3.23.21-8.2c.05-1.24.12-2.6.08-4.05s-.07-3-.15-4.64c0-.82-.15-1.65-.22-2.5s-.17-1.71-.32-2.57S41.83,9.9,41.64,9s-.37-1.86-.56-2.8L41,6s0-.06,0,0l0-.09,0-.17c0-.11,0-.23,0-.34a2.3,2.3,0,0,1,.41-1.21,2.26,2.26,0,0,1,.87-.76,1.8,1.8,0,0,1,.55-.21,2.06,2.06,0,0,1,.72-.06,2.23,2.23,0,0,1,.45.08l.19.06,0,0,.08,0,0,0h0l.25.14h0l.3.2.59.39,2.32,1.53,4.34,2.95c2.76,1.9,5.22,3.64,7.26,5.15C63.53,16.79,65.93,18.85,65.67,19.24Z"/><path class="cls-1" d="M39.09,48c0,.22-1.14.22-3.09,0l-1.62-.18-1.9-.09c-1.36-.05-2.87-.2-4.59-.11l-2.68,0c-.93.06-1.89.17-2.89.25-2,.1-4.09.57-6.3.9a63.34,63.34,0,0,0-6.78,1.86,31,31,0,0,0-3.47,1.29L4,52.67l-.88.38-.22.09-.06,0h0c.15.6-.22-.8-.19-.65l-.17,0s-.16,0-.12-.05a.14.14,0,0,0,0-.09c0-.07-.06-.07-.11-.08s-.09,0-.06,0,0-.05.1-.16,0,0,0-.06v0h0c0,.17.45-1.61.25-.85l.12,0,1,.22,1.11.36,1,.41a18.72,18.72,0,0,1,3.59,2.14,32.51,32.51,0,0,1,5.43,5.28c1.53,1.81,2.82,3.64,4.05,5.21A51.74,51.74,0,0,0,22.38,69a20.83,20.83,0,0,0,6.25,4.73c1.7.78,2.77,1,2.74,1.28s-1.15.41-3.16,0a18.06,18.06,0,0,1-7.47-4.25,44.24,44.24,0,0,1-4.09-4.19c-1.39-1.58-2.71-3.29-4.22-4.94a32.49,32.49,0,0,0-5-4.67,16.57,16.57,0,0,0-3-1.73l-.79-.32-.76-.24-.95-.22a4.43,4.43,0,0,1-.44-.13,2.24,2.24,0,0,1-.83-.52,2.17,2.17,0,0,1-.55-2,2.29,2.29,0,0,1,.43-.87,3.68,3.68,0,0,1,.4-.39L1,50.4l0,0,.05,0,.11-.07.2-.11h.05l.05,0,.24-.1.94-.4,1.86-.78a30.94,30.94,0,0,1,3.71-1.31,56.21,56.21,0,0,1,7.22-1.78,56.83,56.83,0,0,1,6.69-.64c1.05,0,2.07-.07,3-.06l2.79.18a34,34,0,0,1,4.79.64c.7.12,1.35.23,1.94.36l1.56.47C38.13,47.29,39.14,47.72,39.09,48Z"/><path class="cls-1" d="M70.15,78.12c0,.23-1.05.23-2.62.14s-3.67-.16-6-.12-4.47.28-6,.42-2.54.22-2.6,0,.83-.67,2.38-1.15a25.47,25.47,0,0,1,12.47-.31C69.28,77.49,70.18,77.9,70.15,78.12Z"/><path class="cls-1" d="M68.12,69.32c-.43.17-1.49-1.41-2.36-3.53s-1.24-4-.81-4.17,1.48,1.4,2.36,3.53S68.54,69.14,68.12,69.32Z"/><path class="cls-1" d="M76.18,72.65c-.22,0-.45-.47-.52-1.27a6.83,6.83,0,0,1,.66-3.15,6.59,6.59,0,0,1,2-2.46c.69-.46,1.2-.58,1.33-.41s-.09.64-.49,1.24A25.22,25.22,0,0,0,77.83,69c-.44,1-.76,1.87-1,2.51S76.42,72.67,76.18,72.65Z"/><path class="cls-1" d="M79,77.93c0-.41,2.56-1.13,6.07-.75s5.86,1.86,5.69,2.24-2.74-.13-5.9-.58S79,78.43,79,77.93Z"/><path class="cls-1" d="M92.37,66.9c-.22-.41,1.69-1.86,4.28-3.25s4.86-2.18,5.09-1.78-1.68,1.85-4.28,3.25S92.59,67.3,92.37,66.9Z"/><path class="cls-1" d="M69.69,43.37c.46,0,.94,2.84,1.06,6.37s-.14,6.4-.6,6.42-.94-2.83-1.07-6.36S69.23,43.39,69.69,43.37Z"/><path class="cls-1" d="M87,23.31c.21,0,.42.44.34,1.24a12,12,0,0,1-.61,2.78,18.37,18.37,0,0,1-1,2.53,4.43,4.43,0,0,1-.44.69c-.13.16-.25.27-.37.27s-.21-.11-.27-.34a2.48,2.48,0,0,1-.06-.93,11.17,11.17,0,0,1,.6-2.75,15.54,15.54,0,0,1,1-2.5C86.5,23.75,86.73,23.26,87,23.31Z"/><path class="cls-1" d="M51.19,28.81c.11,0,.26,0,.43.22s.36.45.59.73a23,23,0,0,1,1.63,2.54,12.48,12.48,0,0,1,1.25,2.88,2.86,2.86,0,0,1,.14,1c0,.25-.09.39-.2.42s-.26-.06-.42-.22-.34-.4-.59-.71a26,26,0,0,1-1.64-2.56,13.48,13.48,0,0,1-1.26-2.9,2.36,2.36,0,0,1-.12-1C51,29,51.08,28.85,51.19,28.81Z"/><path class="cls-1" d="M36.38,64.13c0-.23.64-.33,1.59-.32a17.24,17.24,0,0,1,3.75.66c2.8.81,5,2,4.75,2.43s-2.45,0-5.21-.82c-1.36-.33-2.52-.81-3.45-1.1S36.35,64.36,36.38,64.13Z"/><path class="cls-1" d="M59.05,63.72c.23-.36,2.45.37,4.88,2.19s3.7,3.87,3.37,4.16-2.18-1.1-4.39-2.83S58.78,64.14,59.05,63.72Z"/><path class="cls-1" d="M55.3,27.87c.47,0,.73,1.41.82,2.91s.05,2.87-.42,3-1.11-1.17-1.25-2.88S54.85,27.87,55.3,27.87Z"/></g></g></svg>