<svg xmlns="http://www.w3.org/2000/svg" viewBox="0 0 115.18 111.88"><defs><style>.cls-1{fill:#cd9f00;}</style></defs><title>treasure_trove</title><g id="Layer_2" data-name="Layer 2"><g id="Layer_1-2" data-name="Layer 1"><path class="cls-1" d="M115.12,30.78A23.94,23.94,0,0,0,113.53,24a31.12,31.12,0,0,0-2.8-5.47c-.55-.78-1-1.57-1.61-2.25l-.82-1-.84-.92a21.28,21.28,0,0,0-6.06-4.7A7.44,7.44,0,0,0,99.46,9c-.46-.1-.73-.11-.79,0s.11.33.47.64c.17.15.4.33.68.53s.53.47.86.73A31.42,31.42,0,0,1,105.55,16l.68.92.66,1c.48.67.87,1.43,1.32,2.17a31.93,31.93,0,0,1,2.25,5.08,23,23,0,0,1,1.2,5.84c0,.5.06,1,0,1.52l-.06.75,0,.38v.09l0,.21-.35,1.72c-.14.54-.33,1-.48,1.52l-.24.76-.32.77-.62,1.55c-.51,1-.92,2-1.46,2.95s-1,1.88-1.58,2.76-1.11,1.73-1.68,2.54c-.27.42-.57.79-.86,1.16l-.82,1-1,1c-.16.16-.32.35-.48.49l-.48.4-.93.8c-.31.26-.67.49-1,.73l-1,.7-1,.61-.93.58c-.31.18-.62.34-.92.5-.6.31-1.15.66-1.7.89l-1.52.72-1.31.52c-.78.37-1.42.52-1.84.73l-.2.1a35.42,35.42,0,0,0,2.55-6.65,158.45,158.45,0,0,0,4.3-17.75c2.5-14,3.47-25.51,2.52-25.67.11-1-10.24-3-23-5.56S52.1-.74,51.87.26c-1-.22-4,9.82-6.81,22.42-2.65,11.92-4.13,21.85-3.48,23.08-1.18-.6-10,1.23-20.5,4.29C10,53.29,1.16,56.67,1.44,57.61s9.51-.92,20.63-4.16C32.76,50.34,41.3,47.09,41.7,46c0,.26.5.76,1.3,1.45a15.57,15.57,0,0,0,2,1.31,28.82,28.82,0,0,0,2.78,1.38,55.42,55.42,0,0,0,7.54,2.44l2.18.55,1.13.27c.16.05.42.1.52.14l.57.15L64.45,55c1.65.41,3.19.89,4.72,1.3l4.39,1.19c2.84.74,5.41,1.36,7.58,1.83s3.76.65,5,.77a156.3,156.3,0,0,0-14.78,5.61c-7.93,3.22-14.57,6.18-15.9,7.52-.09-.31-.2-.48-.33-.5s-.21.08-.33.25a31.65,31.65,0,0,0-6.58-3.56l-1.93-.79c-.67-.26-1.39-.49-2.12-.75-1.47-.53-3.07-1-4.75-1.47-3.36-.92-7.1-1.76-11-2.51s-7.64-1.41-11-2S11,60.64,8.5,60.09C3.51,59,.32,58.16.15,58.65s2.63,2.1,7.68,3.85A91.29,91.29,0,0,0,16.73,65l1.82.42a.57.57,0,0,0,0,.14c-.05.3-.08.74-.15,1.22-.1,1-.31,2.45-.63,4.32-.08.47-.16,1-.23,1.49,0,.29-.06.5-.1.85l-.06.83a14.25,14.25,0,0,0,.3,4,8.41,8.41,0,0,0,2.29,4.23l.18.15.05,0,.1.08.2.16.41.33c.41.25.87.5,1.32.73l1.29.42c.44.07.89.16,1.34.2s.9,0,1.34,0,.88-.1,1.3-.19.84-.22,1.24-.37l.59-.27.3-.13.14-.07.07,0,.15-.09.86-.56c.35-.28.68-.55,1-.83l.79-.85c.24-.29.45-.59.67-.88A12.3,12.3,0,0,0,35,76.68c.07-.31.15-.61.22-.9l0-.13v-.17l0-.2,0-.39c0-.53.12-1,.12-1.51a15.15,15.15,0,0,0-.67-4.65c1.35.27,2.66.54,3.92.82,1.65.39,3.24.72,4.69,1.11.73.19,1.44.35,2.12.54l1.94.55c3.26.94,5.67,1.76,7,2.07a40.35,40.35,0,0,0-1.15,4.43c-.74,3.43-1.61,8.24-2.35,13.59a131.75,131.75,0,0,0-1.3,13.79,26.49,26.49,0,0,0,.15,4.27,6.36,6.36,0,0,0,.26,1.17h0C48.26,110,39.72,108,29.58,105.47c-2.85-.78-5.6-1.42-8-2.14-1.22-.36-2.42-.63-3.49-1s-2.07-.63-3-.88l-1.33-.36-1.19-.39c-.75-.24-1.4-.42-1.94-.55L9.86,100c.1-2.09-1.41-10.48-3.7-20.41C3.52,68.22.83,59.11.15,59.27s.92,9.52,3.56,20.91C5.94,89.81,8.2,97.81,9.26,100c-.29,0-.47,0-.52.15s.36.68,1.26,1.33c.46.32,1,.69,1.7,1.09l1.08.64,1.28.61q1.37.64,3,1.35c1.09.48,2.26.86,3.49,1.31,2.47.92,5.24,1.67,8.15,2.47,11.44,2.85,21,3.46,21.61,2.62,1.5.09,7.67-2.79,14.73-7,7.82-4.61,13.77-9,13.27-9.88s-7.25,2.21-15.07,6.83a86,86,0,0,0-12,8.2c.24-.94.56-2.22.89-3.8.72-3.45,1.58-8.26,2.32-13.6s1.21-10.21,1.33-13.79a28,28,0,0,0-.14-4.66c1.69.26,8.82-1.55,17.11-4.92,6.82-2.83,12.35-6,14.61-7.73C86,63.76,84,69.7,82.15,76.73c-2.9,9.36-4.49,17.21-3.57,17.53s4.06-7.12,7-16.62c2.36-9,3.62-16.55,3-17.61a2.15,2.15,0,0,0,.61.11,8.34,8.34,0,0,0,2.08-.1c.44-.07.94-.15,1.48-.26l1.72-.48a19.06,19.06,0,0,0,1.94-.69c.33-.13.69-.26,1-.41l1.07-.52,1.11-.55,1.13-.67c.38-.24.77-.45,1.16-.73l1.2-.88.61-.46c.19-.15.35-.31.53-.47l1.06-1,.07-.06.09-.1,0,0,.13-.14.26-.29.52-.6c.35-.4.71-.8,1-1.23.65-.86,1.32-1.74,1.91-2.68s1.2-1.91,1.78-2.92,1.07-2.09,1.62-3.16c.23-.56.47-1.13.7-1.7l.35-.86.31-.93c.19-.63.41-1.28.56-1.87s.23-1.15.34-1.72l0-.21,0-.21v-.13l0-.48.06-1A16.56,16.56,0,0,0,115.12,30.78Zm-81.8,38c-.07,1-.15,2.58-.41,4.21-.06.42-.22.93-.33,1.43l-.1.38,0,.2,0,.1,0,0v0h0a.65.65,0,0,1,0-.1h0l-.25.68a11.11,11.11,0,0,1-1.52,2.66c-.18.2-.34.41-.52.6l-.58.55L29,80l-.83.5h0l-.09,0-.18.07-.36.15c-.25.09-.51.14-.77.21s-.54.07-.81.11-.55,0-.82,0l-.8-.12-.74-.23a3.82,3.82,0,0,0-.54-.24l-.41-.31L22.39,80l-.1-.07h0a5.65,5.65,0,0,1-1.49-2.52,13.79,13.79,0,0,1-.52-3.08l0-.82V71.33a17.15,17.15,0,0,0-.5-4.67,3.55,3.55,0,0,0-.42-1c2.66.59,5.5,1.15,8.42,1.71l5.61,1.1C33.33,68.55,33.32,68.66,33.32,68.78Zm54.92-9.17c-.64-.57-3-1.54-6.41-2.72-2.08-.77-4.56-1.64-7.33-2.55l-4.41-1.4c-1.54-.47-3.13-1-4.76-1.39l-4.78-1.21L60,50.2c-.28-.07-.41-.09-.62-.13l-1.14-.23L56,49.4c-2.85-.55-5.36-1.08-7.45-1.62-1-.3-2-.55-2.77-.81s-1.49-.45-2.08-.69a5.49,5.49,0,0,0-1.78-.48c1.13-1,4-10.56,6.59-22.34,2.54-11.41,4-21,3.55-22.88C53.56,1.82,62.85,5,74.54,7.37s21.58,2.9,23.39,2.31c-1.14,1.61-3.45,12.11-5.72,24.81C90.81,41.41,89.85,47.75,89,52.3,88.32,56.1,88,58.75,88.24,59.61Z"/><path class="cls-1" d="M103,43.08A25,25,0,0,1,101,45.9a28.46,28.46,0,0,1-2,2.32c-1.23,1.44-2.38,2.46-3.1,3.27s-1.09,1.29-1,1.41.64-.15,1.55-.75a27.48,27.48,0,0,0,3.64-2.82,22.62,22.62,0,0,0,2.3-2.23,22.53,22.53,0,0,0,2.35-2.88,20.24,20.24,0,0,0,3.53-7.87,17.32,17.32,0,0,0,.36-2.2l.06-.53,0-.26,0-.18V33l0-1.09,0-1.07c0-.36,0-.71-.07-1.05a16.42,16.42,0,0,0-.22-2,22.07,22.07,0,0,0-2.08-6.65,17.38,17.38,0,0,0-1.35-2.32,11.56,11.56,0,0,0-1.22-1.59c-.73-.8-1.2-1.19-1.32-1.1-.31.2,1.15,2.19,2.45,5.63a25.14,25.14,0,0,1,1.08,14.16A20.07,20.07,0,0,1,103,43.08Z"/><path class="cls-1" d="M98.46,33.83c-.27,2.14,0,3.94.62,4s1.31-1.61,1.58-3.75,0-3.94-.62-4S98.73,31.68,98.46,33.83Z"/><path class="cls-1" d="M81.24,68.93c-.09-.12-.46-.07-1.06.13-.3.1-.65.23-1.06.4s-.85.35-1.38.54c-2,.81-4.9,1.82-8.06,3a82.55,82.55,0,0,0-8.09,3.31c-2,1-3.14,1.85-3,2.12s1.49-.05,3.63-.67,5-1.52,8.25-2.68a46.89,46.89,0,0,0,8-3.68,8.89,8.89,0,0,0,1.28-.86q.54-.42.9-.75C81.11,69.36,81.32,69.06,81.24,68.93Z"/><path class="cls-1" d="M77.37,74.43c-1.82,1-4.42,2.3-7.33,3.64s-5.59,2.43-7.55,3.17c-1,.37-1.74.65-2.31.89s-.88.4-.86.55.37.25,1,.3a12.6,12.6,0,0,0,2.61-.23,36.13,36.13,0,0,0,8-2.67,33.6,33.6,0,0,0,7.29-4.36c1.72-1.39,2.46-2.63,2.24-2.81S79.2,73.44,77.37,74.43Z"/><path class="cls-1" d="M79.16,84.37c-.25-.22-1.29.53-3.13,1.52s-4.41,2.3-7.32,3.64S63.11,92,61.16,92.7c-1,.37-1.75.66-2.31.89s-.88.4-.86.55.36.25,1,.3a12.68,12.68,0,0,0,2.62-.23,36.13,36.13,0,0,0,8-2.67,34.09,34.09,0,0,0,7.29-4.36C78.63,85.79,79.38,84.55,79.16,84.37Z"/><path class="cls-1" d="M73.62,91.69c-1.82,1-4.42,2.3-7.32,3.64s-5.6,2.43-7.56,3.17c-1,.38-1.74.66-2.31.89s-.88.41-.86.56.37.25,1,.3a12.73,12.73,0,0,0,2.61-.24,36.39,36.39,0,0,0,8-2.66A34.41,34.41,0,0,0,74.5,93c1.72-1.4,2.46-2.63,2.24-2.82S75.46,90.7,73.62,91.69Z"/><path class="cls-1" d="M59.52,89.12a11.9,11.9,0,0,0,2.41-.41,39.3,39.3,0,0,0,7.54-2.81,38.77,38.77,0,0,0,6.86-4.18c1.61-1.31,2.44-2.32,2.25-2.54s-1.34.3-3.11,1.23-4.22,2.18-7,3.5-5.26,2.51-7.06,3.32c-.88.44-1.65.77-2.16,1.06s-.77.52-.72.66S58.94,89.15,59.52,89.12Z"/><path class="cls-1" d="M43.86,98.19a27.33,27.33,0,0,0-3.47-1.6,96.85,96.85,0,0,0-12-3.69c-9.51-2.29-17.4-3.18-17.5-2.59s7.56,2.47,17,4.75c4.7,1.17,9,2.21,12,3,1.55.36,2.77.75,3.65.91s1.4.22,1.46.08S44.66,98.62,43.86,98.19Z"/><path class="cls-1" d="M40.54,102.47A92.7,92.7,0,0,0,29,98.76c-9.22-2.33-16.89-3.19-17-2.6s7.32,2.44,16.44,4.74c4.55,1.19,8.67,2.25,11.64,3,1.51.36,2.69.74,3.55.9s1.36.21,1.42.07-.34-.45-1.11-.88A27.24,27.24,0,0,0,40.54,102.47Z"/><path class="cls-1" d="M28.62,87.44C26,87,23.55,86.66,21.3,86.26l-3.19-.51-2.77-.47c-1.7-.25-3.09-.51-4.06-.62s-1.53-.1-1.57,0,.44.43,1.35.8A34.56,34.56,0,0,0,15,86.8l2.77.74,3.18.72c2.25.52,4.75.92,7.36,1.37s5.13.74,7.43.92c1.15.1,2.24.21,3.27.27l2.85.09A28.13,28.13,0,0,0,46,90.74c1-.11,1.51-.24,1.51-.4S47,90,46,89.88s-2.34-.27-4.05-.54L39.15,89,36,88.52C33.7,88.24,31.23,87.8,28.62,87.44Z"/><path class="cls-1" d="M36.16,83.78c-.08.61,2.39,1.39,5.52,1.75s5.7.16,5.81-.44S45.12,83.7,42,83.34,36.24,83.17,36.16,83.78Z"/><path class="cls-1" d="M48.4,78.43c.11-.61-1.84-1.38-4.36-1.73s-4.6-.13-4.69.47,1.86,1.38,4.36,1.72S48.29,79,48.4,78.43Z"/><path class="cls-1" d="M11,70.24a8.88,8.88,0,0,0-2.21,0,6,6,0,0,0-.75.17.56.56,0,0,0-.38.33.53.53,0,0,0,.11.48,1.53,1.53,0,0,0,.62.53c.15.08.33.17.52.25l.56.19a7.43,7.43,0,0,0,1.31.24c1.87.19,3.43-.31,3.4-.93S12.74,70.42,11,70.24Z"/><path class="cls-1" d="M14.82,79.36a9.14,9.14,0,0,0-2.53-.5A20,20,0,0,0,10,78.78l-.22,0-.22,0a1.57,1.57,0,0,0-.38,0,.55.55,0,0,0-.46.25.56.56,0,0,0,0,.51,1.75,1.75,0,0,0,.21.32l.14.17.23.17a5.8,5.8,0,0,0,2.74.86,9,9,0,0,0,2.56-.15c.64-.14,1.06-.34,1.13-.65S15.49,79.63,14.82,79.36Z"/><path class="cls-1" d="M23.32,68.65c-2.27,0-2,3.12-1.88,4.59.17,2,1.2,4.46,3.58,4.55.73,0,2-.33,2.11-1.22s-1.26-.14-1.64-.22C23.69,76,24,72.26,24.15,70.8c1,0,1.85.46,2.8.5a15,15,0,0,0-.28,3.64c.11.61.36,2,1.22,1a4.51,4.51,0,0,0,.73-1.37v.07c.53-1.15,2.14-3.39,1.16-4.64a4.11,4.11,0,0,0-2.7-1.09A26.14,26.14,0,0,0,23.32,68.65Z"/><path class="cls-1" d="M100.25,20.65c-.32.13.35,1.77.89,4.27l.2,1c.07.35.1.72.16,1.1.13.75.16,1.56.22,2.41,0,.43,0,.86,0,1.31v.67l-.06.69a13.82,13.82,0,0,1-.14,1.4q-.11.68-.21,1.38L101,36.36a13.1,13.1,0,0,1-.41,1.33l-.2.64-.26.62c-.18.41-.32.83-.51,1.21a23.64,23.64,0,0,1-1.13,2.14c-.2.33-.36.66-.56,1l-.58.85c-1.49,2.14-2.67,3.33-2.45,3.6s1.73-.57,3.67-2.62l.74-.82c.25-.29.47-.62.72-.95a20.55,20.55,0,0,0,1.42-2.24c.23-.4.41-.85.63-1.29l.31-.67.26-.73c.16-.49.38-1,.49-1.49s.24-1,.37-1.48a22,22,0,0,0,.29-6.13,19.47,19.47,0,0,0-.46-2.6c-.1-.41-.18-.8-.3-1.16l-.36-1C101.61,21.8,100.49,20.55,100.25,20.65Z"/><path class="cls-1" d="M75.49,19.2a10.56,10.56,0,0,0-3-1.57A11.26,11.26,0,0,0,71,17.19c-.27-.06-.55-.09-.82-.13A5.5,5.5,0,0,0,69.4,17l-.71,0c-.33,0-.52,0-.79,0a11.66,11.66,0,0,0-1.46.21,11.11,11.11,0,0,0-4.75,2.3A10.76,10.76,0,0,0,59,22.86a9.7,9.7,0,0,0-1,3.05c-.27,1.77,0,2.67.09,2.69s.25-1,.75-2.49a10.73,10.73,0,0,1,3.86-5.36A9.92,9.92,0,0,1,66.79,19,8.13,8.13,0,0,1,68,18.9c.19,0,.46,0,.59,0l.7.05A4,4,0,0,1,70,19l.61.12a9.69,9.69,0,0,1,1.26.4,8.59,8.59,0,0,1,2.39,1.35,9,9,0,0,1,2,2.06A9.79,9.79,0,0,1,78,28.6a10.35,10.35,0,0,1-.47,3,9.63,9.63,0,0,1-1.33,2.64,8.87,8.87,0,0,1-2,2.07,9.13,9.13,0,0,1-2.39,1.35,9.58,9.58,0,0,1-5,.51,9.8,9.8,0,0,1-4.13-1.73,10.65,10.65,0,0,1-3.86-5.36c-.5-1.54-.56-2.49-.75-2.48s-.36.95-.09,2.69a9.73,9.73,0,0,0,1,3,10.9,10.9,0,0,0,2.71,3.35A11,11,0,0,0,66.45,40a11.2,11.2,0,0,0,6.08-.41A11.49,11.49,0,0,0,78,35.51a11.56,11.56,0,0,0,1.66-3.22,12.66,12.66,0,0,0,.6-3.69A11.83,11.83,0,0,0,78,21.68,11.13,11.13,0,0,0,75.49,19.2Z"/><path class="cls-1" d="M68.7,32.5C69.85,32.25,71,32,72,31.73l1.56-.39-1.11-1.11c-3.73-3.76-6.67-6.32-7-6-.4-.05-1.2,3.37-2,8.18l-.19,1.23,1.26-.25C65.88,33.12,67.26,32.83,68.7,32.5Zm-3-7.67a47.49,47.49,0,0,0,4.41,5.46l-1.81.39-2.9.68A42.49,42.49,0,0,0,65.69,24.83Z"/></g></g></svg>