<svg xmlns="http://www.w3.org/2000/svg" viewBox="0 0 288.71 152.72"><defs><style>.cls-1{opacity:0.7;}.cls-2{fill:#e4d4a2;}</style></defs><title>enroll_illustration</title><g id="Layer_2" data-name="Layer 2"><g id="Layer_1-2" data-name="Layer 1"><g class="cls-1"><path class="cls-2" d="M45.27,90.35c-.74.74-.74,4.89,0,5.33S66.74,94.2,78.89,94.2s57.17.3,67.24.59,64.73,1.78,64.73.89-7,0-8.15-.74-4.89-.89-7.4-.89-47.84-1-60.43-1.48S59.19,91.39,58.6,90.8s3.85-7.71,5-10.22S85.85,40.29,88.52,35.4s15.4-28.44,16-28.58,5.93,10.22,8.15,14.07,18.22,34.36,20.73,39S152.65,94.2,153.54,94.2s3.11-.15,3.11-.15-3.41-5.33-2.67-5.62,3.85,5.77,4.45,5.77-7-15.85-9.78-20.88S139,59.84,135.17,54.06s-16.09-26.4-18-31S106.88.3,106,0,95,17.48,93.26,21s-12.59,24.88-15,29.17S63,78.2,62.15,80.13c-.74,1.63-3.4,8.59-6.51,9.78S46.16,89.46,45.27,90.35Z"/><path class="cls-2" d="M107.08,59.64c.12-.7,15.9-.29,16.89-.59l2-.59s28.44-.2,39.5.1,28.14-.69,28.33-.2-5.82,13.92-7.6,17.38-6.91,13.72-8.39,16.49-6.81,15.6-8.1,18.56-8.39,19-9.18,20.64-10.22,20.91-9.11,21.28,4-8.15,4.81-10,8-15.7,9.41-19,8-15.48,9.63-19.4,6.74-14.52,7.85-17.26,6.36-14.66,7.33-16.22S198,57.1,198.93,57.1s3.78-.52,3.78-.89-2.81-.59-2.81-.59.07-2.22-1-2.3-2.14,2.45-3,2.45-28.51,0-38.58-.37-31,.52-34.44.37-15.18,0-16.66-.22-4.37-.75-5,.44.81,3.33,3.63,6.89,15.18,22.51,16.66,24.44,16.88,25.54,19,28.73,19,30.58,19.47,30.58-1.11-3-2.14-4.74-7.93-13.84-9.78-16.81-10.07-17-11.62-19.47S124.06,86.5,122.06,84.06,106.91,60.63,107.08,59.64Z"/><path class="cls-2" d="M135.39,98.25c1,1.71,2,3.38,3,5.08s2.07,3.4,3.12,5.09,12.22,20.59,12.81,21.63.3,1.48.74,1.48,3.11-6.22,4.37-8.89q2.61-5.53,5.25-11c1.08-2.27,2.21-4.52,3.28-6.79a33.23,33.23,0,0,1,2-4c.11-.16,1.55-2.36,1.27-2.37-6-.3-12,.38-17.95.23-3-.08-6-.36-9-.57-2.53-.18-6.75-1.07-9.07-.1Z"/><path class="cls-2" d="M104.19,14.9c.42-.09,1.85,2.51,2.94,5,4.32,10,10.25,19.17,14.59,29.06-.12-.28-10.14.54-11,.55-3.78.07-7.57.12-11.35-.09-4.51-.25-9.06.9-13.5.52a20.52,20.52,0,0,1,2.37-4.12c1-1.63,2.16-3.27,3.15-4.91,2.79-4.61,4.74-9.92,7-14.79,1.23-2.6,2.45-5.21,3.74-7.78C102.48,17.76,103.41,15.07,104.19,14.9Z"/><path class="cls-2" d="M0,80.23c-.09.58,4.25,1.45,5.51,1.74s3,1.74,4.92,1.74,30.14-.87,37.38-.77S88.57,84,90.41,84s1.54-.87,2.32-.87,8.88.39,10-.39-1.16-3.57-2.22-3.57-19.9.29-25.21.29-35.93.68-42,.77S.19,79.07,0,80.23Z"/><path class="cls-2" d="M157,73.2c.58.32,4.91-1.29,6.19-1.32s19.74-.66,22.21-.72,26.27.28,30.62.17,63.63,1,63.62.5-37.95-.8-42.2-1-29-.22-29.25-.61,9.37-.61,9.35-1.2-25.76.4-34.86.22-25.31-1.19-26.09-.68S155.4,72.35,157,73.2Z"/><path class="cls-2" d="M162.42,75.32c-.9-.11-.21,3.66,1.07,3.63s19-.81,26.34-1.26,40.8.21,49.3.42,49.59.9,49.58.31-51.78-1.15-51.79-1.75,28-.7,27.92-1.39-53.34-.23-61.43-.06S165.89,75.74,162.42,75.32Z"/></g></g></g></svg>